<svg width="144" height="144" viewBox="0 0 144 144" fill="none" xmlns="http://www.w3.org/2000/svg">
<path d="M29.1699 112.017C34.9539 114.85 43.0709 118.968 53.5919 124.895C53.5919 124.895 4.50887 112.231 3.65187 107.232C3.10387 103.947 7.15087 99.8769 10.0319 97.4719C10.7219 98.4249 11.6259 99.3769 12.7689 100.496C20.0999 107.613 27.7659 111.327 29.1699 112.017ZM136.811 85.2859C130.098 109.756 126.742 121.992 116.649 128.062C108.532 132.918 100.248 132.632 87.8459 132.18C76.1017 131.74 64.5217 129.276 53.6159 124.896C62.9221 125.734 72.2486 126.329 81.5859 126.681C94.6299 127.157 103.438 127.014 112.531 121.944C112.864 121.754 113.15 121.611 113.531 121.373C121.124 116.541 124.29 105.805 130.622 84.3099C135.454 67.9099 135.74 61.1489 135.002 58.0779C135.692 58.3879 136.263 58.7449 136.835 59.2439C141.238 63.1239 140.524 71.6699 136.811 85.2859Z" fill="#007B66"/>
<path d="M52.7599 124.325C53.0449 124.515 53.3069 124.705 53.5689 124.872C43.0479 118.945 34.9539 114.827 29.1459 111.994C27.7659 111.328 20.1009 107.59 12.7209 100.449C11.5789 99.3311 10.6739 98.3791 9.98389 97.4261C9.29389 96.4741 8.81789 95.5461 8.48389 94.4511C7.36589 90.7371 8.60389 86.9761 10.1739 83.9531C12.0309 89.3091 17.7919 94.8081 27.9079 104.305C37.6679 113.446 46.5229 120.04 52.7599 124.325ZM130.598 84.2631C124.267 105.758 121.101 116.493 113.507 121.325C113.126 121.563 112.841 121.73 112.507 121.897C103.391 126.967 94.6069 127.133 81.5619 126.634C72.2247 126.281 62.8982 125.685 53.5919 124.848C54.7589 124.729 55.9019 124.61 57.0439 124.491C73.3979 122.801 86.9659 121.206 97.2019 120.016C99.7719 119.73 104.652 119.159 109.223 115.731C114.555 111.732 116.53 105.996 117.483 103.115C128.218 70.4561 130.741 58.6731 130.646 54.0081C131.908 54.2701 132.86 54.7691 133.693 55.6031C134.121 56.0311 134.645 56.6501 134.978 58.0071C135.716 61.1011 135.431 67.8621 130.598 84.2631Z" fill="#FF5252"/>
<path d="M130.646 54.055C130.622 51.913 130.027 51.294 129.456 50.818C127.242 49.08 125.052 49.938 105.819 53.912C101.058 54.888 96.7489 55.745 92.9889 56.483C90.7269 56.936 88.6789 57.316 86.8469 57.673C86.7519 57.697 86.6569 57.721 86.5609 57.721C85.4659 57.935 84.4429 58.126 83.5379 58.292L83.0379 57.435C74.3499 42.986 69.4939 36.821 69.4939 36.821C64.5669 30.561 62.0439 27.419 59.1869 26.895C53.3069 25.776 47.9509 31.655 38.3349 42.535C10.8889 73.55 9.07994 76.525 9.62694 81.43C9.72194 82.287 9.91294 83.144 10.2219 83.977C12.0789 89.333 17.8389 94.831 27.9559 104.329C35.7136 111.611 44.0047 118.302 52.7599 124.348C53.0449 124.539 53.3069 124.729 53.5699 124.896C54.7359 124.777 55.8779 124.658 57.0199 124.539C73.3739 122.849 86.9419 121.254 97.1779 120.063C99.7479 119.778 104.628 119.207 109.199 115.779C114.531 111.78 116.507 106.043 117.459 103.163C128.218 70.503 130.718 58.721 130.646 54.055Z" fill="#F9F3EF"/>
<path d="M86.5612 57.72C81.6102 66.933 76.6582 76.145 71.7312 85.381C71.7312 85.381 63.6852 108.161 61.8532 112.351C60.7332 114.898 58.5682 120.516 57.0442 124.538L53.5932 124.896C53.3312 124.705 53.0692 124.538 52.7832 124.348C55.1434 120.241 57.382 116.066 59.4962 111.827C65.7802 99.235 67.2562 91.784 71.6832 80.667C74.8925 72.6626 78.6878 64.9059 83.0382 57.46L83.5382 58.317C84.4662 58.127 85.4662 57.937 86.5612 57.722V57.72Z" fill="#003163"/>
<path d="M52.7598 36.082C52.7598 36.082 53.5448 40.2 58.2098 43.938C62.8758 47.675 74.7778 61.933 74.7778 61.933L77.1108 57.458L55.8778 32.25L52.7598 36.082ZM47.8558 41.32C47.8558 41.32 59.0668 54.317 63.2328 57.46C67.3988 60.602 72.8728 66.076 72.8728 66.076L71.3028 67.909C71.3028 67.909 58.2578 59.054 55.9248 55.912C53.5698 52.794 45.4998 43.915 45.4998 43.915L47.8558 41.32ZM41.3098 48.533C41.3098 48.533 55.5918 66.243 59.2098 67.91C62.8278 69.576 67.6838 75.836 67.6838 75.836L66.3038 78.836C66.3038 78.836 60.1138 72.813 52.8068 65.41C45.4988 58.007 39.0238 49.961 39.0238 49.961L41.3098 48.533ZM34.2868 58.055C34.2868 58.055 45.9748 71.695 49.8788 73.646C53.7828 75.598 63.5188 83.977 63.5188 83.977L61.7568 88.643L31.9308 60.983L34.2868 58.055ZM25.1228 66.242C25.1228 66.242 30.9788 71.693 34.8588 74.622C41.9758 79.953 45.0468 82.143 49.6648 86.69C50.3308 87.332 51.9498 88.975 54.3308 91.165C56.0092 92.7123 57.7233 94.2204 59.4718 95.688C58.7338 97.568 57.9958 99.425 57.2578 101.305C51.1608 96.8053 45.2451 92.0648 39.5248 87.095C33.5185 81.8839 27.7366 76.4196 22.1948 70.717C23.1708 69.217 24.1468 67.718 25.1228 66.242ZM80.6338 81.668C80.6338 81.668 75.8728 94.998 74.3018 98.308C72.7068 101.64 69.6598 111.161 69.6598 111.161C69.6598 111.161 84.7518 106.71 88.8698 107.02C92.9878 107.329 108.223 104.425 108.223 104.425L111.079 93.07L115.197 81.645H80.6338V81.668ZM106.913 93.189L104.7 101.997C104.7 101.997 92.8688 104.258 89.6798 104.02C86.4898 103.782 74.7538 107.234 74.7538 107.234C74.7538 107.234 77.1108 99.831 78.3488 97.26C79.5858 94.665 83.2758 84.334 83.2758 84.334H110.127L106.913 93.189ZM83.1328 73.336C83.1328 73.336 98.2478 73.55 102.295 73.336C106.342 73.122 121.457 72.503 121.457 72.503L122.814 67.909C122.814 67.909 114.221 67.266 110.15 67.909C106.08 68.551 85.0368 69.432 85.0368 69.432L83.1328 73.336ZM87.3218 63.695C87.3218 63.695 96.8678 63.148 99.6998 62.505C102.533 61.862 124.837 61.339 124.837 61.339L125.48 58.887C125.48 58.887 124.052 59.791 121.1 59.791C118.148 59.791 110.793 59.672 108.341 59.672C105.889 59.672 87.3218 61.934 87.3218 61.934V63.695Z" fill="#007B66"/>
<path d="M37.9061 93.879C38.5011 96.117 36.0011 98.783 33.4781 98.949C32.3591 99.021 30.8591 98.616 29.9081 97.354C29.8121 97.235 28.6701 95.664 29.2651 93.855C29.9071 91.975 32.0021 91.285 33.3831 91.237C35.1681 91.213 37.4291 92.117 37.9061 93.879ZM89.2032 114.494C89.0362 116.255 87.3461 117.541 85.6561 117.707C84.0141 117.85 81.9661 116.946 81.5861 115.208C81.2761 113.827 82.1331 112.447 83.0861 111.804C83.7521 111.352 84.4422 111.28 85.1332 111.185C86.0612 111.09 87.0131 110.971 87.8461 111.518C88.8461 112.137 89.3222 113.399 89.2032 114.494Z" fill="#003163"/>
</svg>
