<svg width="73" height="27" viewBox="0 0 73 27" fill="none" xmlns="http://www.w3.org/2000/svg">
<path d="M0.124 2.996C0.124 2.396 0.352 1.88 0.808 1.448C1.288 1.016 1.864 0.799998 2.536 0.799998H18.592C18.592 2.24 18.34 3.296 17.836 3.968C17.356 4.616 16.564 4.94 15.46 4.94H4.948V11.204H14.524C14.524 12.644 14.272 13.7 13.768 14.372C13.288 15.02 12.496 15.344 11.392 15.344H4.948V21.86H16.216C17.296 21.86 18.076 22.196 18.556 22.868C19.06 23.516 19.312 24.56 19.312 26H2.536C1.864 26 1.288 25.796 0.808 25.388C0.352 24.956 0.124 24.428 0.124 23.804V2.996ZM22.7998 4.04C22.7998 2.888 23.2078 2.012 24.0238 1.412C24.8398 0.787998 26.0398 0.475998 27.6238 0.475998V11.204H38.3878V4.04C38.3878 2.864 38.7958 1.976 39.6118 1.376C40.4518 0.775999 41.6518 0.475998 43.2118 0.475998V22.76C43.2118 23.912 42.7918 24.8 41.9518 25.424C41.1358 26.024 39.9478 26.324 38.3878 26.324V15.38H27.6238V22.76C27.6238 23.912 27.2038 24.8 26.3638 25.424C25.5478 26.024 24.3598 26.324 22.7998 26.324V4.04ZM47.4443 4.076C47.4443 2.972 47.8763 2.096 48.7403 1.448C49.6043 0.775999 50.7803 0.439999 52.2683 0.439999L59.8283 19.448L59.0003 21.716L59.3603 21.86L67.4603 0.475998C68.9243 0.475998 70.0883 0.811998 70.9523 1.484C71.8403 2.132 72.2843 3.008 72.2843 4.112V26.324C69.1403 26.324 67.5683 25.148 67.5683 22.796V11.276L68.7923 7.964L68.3963 7.82L61.8083 25.028C61.6403 25.412 61.3763 25.724 61.0163 25.964C60.6803 26.204 60.2963 26.324 59.8643 26.324C59.4323 26.324 59.0363 26.204 58.6763 25.964C58.3403 25.724 58.0883 25.4 57.9203 24.992L51.3323 7.784L50.9363 7.928L52.1243 11.24V22.796C52.1243 25.148 50.5643 26.324 47.4443 26.324V4.076Z" fill="white"/>
</svg>
