<svg width="107" height="103" viewBox="0 0 107 103" fill="none" xmlns="http://www.w3.org/2000/svg">
<path d="M49.2144 69.6507C49.1024 70.1116 48.9904 70.5724 48.7664 70.918C48.5424 71.2637 48.2064 71.7245 47.7584 71.8397C47.6464 71.8397 47.5344 71.8397 47.4224 71.8397C47.3104 71.7245 47.3104 71.6093 47.3104 71.4941C47.1984 71.3789 46.9744 71.3789 46.7504 71.4941C46.4144 71.6093 45.9664 71.7245 45.6304 71.7245C45.4064 71.7245 45.1824 71.7245 44.9584 71.7245C44.7344 71.6093 44.6224 71.4941 44.6224 71.2637C44.3984 71.2637 44.2864 71.1485 44.1744 71.0333C44.0624 70.918 44.0624 70.6876 44.1744 70.5724C43.9504 70.4572 43.8384 70.1116 43.8384 69.7659C43.9504 69.4203 44.0624 69.1899 44.3984 69.0747C44.6224 68.9595 44.9584 68.8443 45.1824 68.8443C46.3024 68.6138 47.4224 68.729 48.4304 68.3834C48.7664 68.2682 49.1024 68.153 49.4384 68.0378C49.8864 67.8074 50.1104 68.3834 49.8864 68.729C49.6624 68.9595 49.4384 69.1899 49.2144 69.6507Z" fill="#5C9B34"/>
<path d="M2.28636 78.7522C2.06236 79.2131 1.83836 79.9043 2.28636 80.1347C2.62236 80.3652 3.07036 80.0195 3.29436 79.6739C5.87036 76.3328 7.43836 72.4156 9.11836 68.6137C10.5744 65.503 12.1424 62.2771 12.1424 58.8207C12.1424 57.323 11.2464 55.134 9.34236 55.8253C7.66236 56.4013 8.11036 58.936 7.99836 60.3185C7.66236 64.4661 6.76636 68.6137 5.31036 72.5308C4.41436 74.7198 3.40636 76.7936 2.28636 78.7522Z" fill="#EF390F"/>
<path d="M87.6304 55.7102C92.1104 54.4429 95.5824 50.8713 98.6064 47.2998C99.3904 46.3781 100.062 45.4564 100.51 44.4195C100.622 44.1891 100.622 43.9587 100.846 43.8435C100.958 43.7283 101.294 43.6131 101.406 43.8435C101.518 43.9587 101.518 44.1891 101.518 44.4195C100.846 47.5302 98.7184 50.0649 96.5904 52.2539C94.3504 54.5581 91.8864 56.6319 89.3104 58.4753C88.0784 59.3969 86.8464 60.2034 85.5024 60.6643C84.8304 60.8947 84.0464 61.0099 83.3744 60.549C82.4784 59.973 82.4784 58.5905 82.8144 57.5536C83.7104 55.1341 85.8384 56.171 87.6304 55.7102Z" fill="#5C9B34"/>
<path d="M48.4304 68.2679C48.2064 68.3831 47.9824 68.6135 47.9824 68.8439C47.9824 69.1896 48.3184 69.3048 48.5424 69.3048C48.8784 69.3048 49.1024 69.0743 49.3264 68.9591C52.0144 67.0006 54.3664 64.3507 56.6064 61.7009C57.9504 60.2031 59.2944 58.475 59.7424 56.5164C59.8544 55.8251 59.9664 55.0186 59.5184 54.3274C59.2944 53.8665 58.7344 53.5209 58.1744 53.6361C57.5024 53.7513 57.5024 54.0969 57.2784 54.673C56.7184 55.9403 56.2704 57.2076 55.5984 58.3597C54.4784 60.7792 53.1344 63.0834 51.4544 65.1572C50.5584 66.3093 49.5504 67.3462 48.4304 68.2679Z" fill="#5C9B34"/>
<path d="M35.3264 50.9863C37.7904 57.5533 41.3744 63.5443 45.8544 68.844C46.0784 69.1896 46.3024 69.6505 46.0784 69.8809C45.8544 70.1113 45.5184 69.8809 45.1824 69.7657C42.2704 67.6919 39.3584 65.5029 37.2304 62.6226C35.1024 59.7423 33.7584 56.0556 34.3184 52.3689C34.4304 51.908 34.5424 51.4472 34.8784 51.332C35.2144 51.1015 35.7744 51.5624 35.5504 51.908L35.3264 50.9863Z" fill="#EF390F"/>
<path d="M1.50239 75.9871C1.27839 76.1023 0.942392 76.1024 0.718392 76.3328C0.494392 76.5632 0.382392 76.9088 0.494392 77.1392C0.606392 77.3697 1.05439 77.4849 1.27839 77.3697C1.61439 77.2545 1.83839 77.1392 2.17439 77.1392C1.39039 77.9457 0.718392 78.8674 0.158392 79.7891C0.0463921 80.0195 -0.0656078 80.3651 0.0463922 80.5956C0.158392 80.826 0.494392 80.826 0.606392 80.7108C0.830392 80.5956 0.942392 80.4804 1.05439 80.2499C0.942392 80.5956 0.718392 80.826 0.494392 81.0564C0.382392 81.402 0.382392 81.8629 0.718392 81.8629C0.942392 81.8629 1.05439 81.7477 1.16639 81.6325C1.39039 81.402 1.61439 81.1716 1.83839 80.826C1.72639 80.9412 1.61439 81.0564 1.61439 81.1716C1.61439 81.2868 1.61439 81.5173 1.72639 81.5173C1.83839 81.5173 1.95039 81.5173 1.95039 81.5173C2.73439 81.402 3.18239 80.5956 3.63039 80.0195C4.97439 77.8305 5.87039 75.5263 6.43039 72.9917C6.65439 72.1852 5.98239 72.646 5.64639 72.8764C5.19839 73.3373 4.86239 73.7981 4.30239 74.1438C3.74239 75.0655 2.62239 75.6415 1.50239 75.9871Z" fill="#EF390F"/>
<path d="M100.062 40.8481C99.9504 40.5025 99.9504 40.1568 99.9504 39.8112C100.062 39.4656 100.286 39.1199 100.622 39.2351C100.958 39.2351 101.182 39.696 101.294 40.0416C101.406 40.3873 101.406 40.7329 101.518 41.0785C101.966 39.9264 102.526 38.7743 103.198 37.6222C103.422 37.3918 103.646 37.0461 103.982 37.1614C104.206 37.1614 104.43 37.507 104.43 37.7374C104.43 37.9678 104.318 38.1982 104.206 38.4287C104.43 38.1982 104.542 37.7374 104.766 37.3918C104.99 37.0461 105.55 36.9309 105.662 37.2766C105.774 37.507 105.662 37.7374 105.662 37.9678C105.55 38.3135 105.438 38.6591 105.214 39.1199C105.326 39.0047 105.326 38.7743 105.438 38.7743C105.55 38.6591 105.774 38.6591 105.886 38.7743C105.998 38.8895 105.998 38.8895 105.998 39.0047C106.222 39.8112 105.774 40.7329 105.326 41.5394C103.87 43.9588 101.966 46.1478 99.8384 47.876C99.1664 48.452 99.2784 47.6455 99.3904 47.0695C99.6144 46.3782 99.8384 45.8022 100.062 45.1109C100.286 43.6132 100.286 42.1154 100.062 40.8481Z" fill="#5C9B34"/>
<path d="M25.2464 17.2296C24.1264 14.1189 22.8944 11.0082 21.6624 7.89751C20.9904 6.16935 20.2064 4.5564 19.4224 2.94345C19.0864 2.36739 18.7504 1.67613 18.1904 1.3305C17.8544 1.10007 17.5184 0.984863 17.1824 0.984863C16.8464 0.984863 16.5104 1.21528 16.1744 1.44571C15.7264 1.90655 15.5024 2.59781 15.3904 3.28908C14.9424 5.01724 14.6064 6.86061 14.1584 8.58878C13.4864 11.8147 12.9264 15.1558 12.4784 18.4969C12.1424 21.262 11.1344 24.4879 12.5904 26.9073C13.2624 28.0594 14.0464 28.8659 15.0544 29.7876C15.7264 30.3636 16.3984 30.8245 17.0704 31.0549C17.7424 31.2853 18.7504 31.2853 19.4224 30.7092C19.7584 30.4788 19.9824 30.1332 20.0944 29.7876C20.3184 30.1332 20.6544 30.3636 20.9904 30.4788C21.7744 30.8245 22.6704 30.7092 23.3424 30.2484C24.0144 29.7876 24.5744 29.2115 25.1344 28.5202C25.9184 27.4833 26.5904 26.4464 26.9264 25.1791C27.7104 22.7597 26.1424 19.7642 25.2464 17.2296Z" fill="#FF5A27"/>
<path d="M26.8144 25.5248C27.7104 22.7597 26.0304 19.7642 25.1344 17.2296C24.0144 14.1189 22.7824 11.0082 21.5504 7.89751C20.8784 6.16935 20.0944 4.5564 19.3104 2.94345C18.9744 2.36739 18.6384 1.67613 18.0784 1.3305C17.8544 1.10007 17.5184 0.984863 17.1824 0.984863C17.0704 0.984863 16.9584 0.984863 16.8464 0.984863C17.2944 1.21528 17.7424 1.67613 18.0784 2.02176C18.9744 3.17387 19.5344 4.5564 19.9824 5.93893C20.5424 8.01272 21.1024 10.0865 21.3264 12.2755C21.7744 14.9254 21.8864 17.6904 21.1024 20.2251C20.7664 21.4924 20.0944 22.7597 18.9744 23.451C17.6304 24.2574 15.9504 24.1422 14.3824 24.027C14.4944 25.0639 15.1664 25.9856 16.1744 26.4464C17.0704 26.9073 18.0784 27.1377 19.0864 27.2529C20.5424 27.4833 22.1104 27.7138 23.6784 27.5986C24.4624 27.4833 25.2464 27.3681 26.0304 27.1377C26.3664 26.6769 26.7024 26.1008 26.8144 25.5248Z" fill="#EF390F"/>
<path d="M21.1024 40.5019L4.86237 41.5388L16.3984 109.168L23.1184 112.393L28.6064 111.817L34.0944 111.241L40.0304 106.518L37.2304 38.0825L21.1024 40.5019Z" fill="#FF5A27"/>
<path d="M34.0944 111.241L29.9504 38.889L37.3424 37.9673L40.0304 106.518L34.0944 111.241Z" fill="#EF390F"/>
<path d="M23.1183 112.393L13.0383 42.8062L11.3583 43.7278L19.7583 110.781L23.1183 112.393Z" fill="#FF7336"/>
<path d="M37.3424 37.9673L26.8144 21.4922C26.8144 21.8378 26.8144 22.2987 26.7024 22.5291C26.4784 23.3356 25.4704 23.7964 24.6864 23.7964C24.2384 23.7964 23.9024 23.6812 23.5664 23.4508C23.4544 23.3356 23.1184 23.1051 23.0064 23.1051C22.7824 23.1051 22.5584 23.3356 22.4464 23.4508C21.8864 23.7964 21.2144 23.7964 20.7664 23.3356C20.0944 24.0268 19.4224 24.7181 18.4144 24.8333C17.6304 24.9485 16.8464 24.6029 16.3984 23.9116C15.6144 24.4877 14.6064 24.7181 13.5984 24.3725C13.0384 24.142 12.2544 23.6812 12.0304 23.1051L4.97437 41.5389L5.08637 41.5389C5.08637 41.6541 5.08637 41.7693 5.08637 41.8845C5.42237 43.6127 6.76637 45.1104 8.33437 45.5712C10.0144 46.1473 12.0304 45.6865 13.3744 44.4191C13.5984 45.3408 14.3824 45.8017 15.2784 46.1473C17.8544 47.2994 20.7664 47.7602 23.4544 47.1842C26.2544 46.6081 28.7184 44.88 30.0624 42.3453C30.5104 43.1518 31.5184 43.267 32.4144 43.1518C33.5344 43.0366 34.7664 42.691 35.6624 41.9997C36.5584 41.4237 37.2304 39.2346 37.3424 37.9673C37.2304 38.0825 37.2304 38.0825 37.3424 37.9673Z" fill="#FFCE80"/>
<path d="M37.2304 38.0825L26.7024 21.4922C26.7024 21.8378 26.7024 22.2987 26.5904 22.5291C26.3664 23.3356 25.3584 23.7964 24.5744 23.7964C24.1264 23.7964 23.7904 23.6812 23.4544 23.4508C23.3424 23.3356 23.0064 23.1051 22.8944 23.1051C23.3424 23.9116 23.9024 24.6029 24.1264 25.0637C25.6944 28.0592 26.9264 31.1699 27.7104 34.3958C28.1584 36.3544 28.6064 38.4282 28.0464 40.2715C27.3744 42.691 25.4704 44.6496 23.2304 45.8017C21.8864 46.4929 20.5424 46.8386 19.0864 47.1842C20.4304 47.4146 21.8864 47.4146 23.2304 47.069C26.0304 46.4929 28.4944 44.7648 29.8384 42.2301C30.2864 43.0366 31.2944 43.1518 32.1904 43.0366C33.3104 42.9214 34.5424 42.5758 35.4384 41.8845C36.5584 41.4237 37.2304 39.2346 37.2304 38.0825Z" fill="#FFBE71"/>
<path opacity="0.31" d="M12.5904 36.7001C12.3664 37.8522 12.0304 39.1195 11.4704 40.1564C10.3504 41.8846 8.11036 42.5758 6.20636 41.9998C7.10236 43.3823 8.55836 44.7648 10.1264 44.6496C11.0224 44.5344 11.8064 43.9584 12.2544 43.1519C12.8144 42.4606 13.0384 41.5389 13.2624 40.6172C13.9344 37.9674 14.0464 35.2023 14.2704 32.4373C14.0464 30.5939 14.4944 28.5201 14.6064 26.5615C14.3824 29.9026 13.2624 33.359 12.5904 36.7001Z" fill="white"/>
<path opacity="0.31" d="M21.6624 45.2259C24.0144 44.8803 26.1424 42.9217 26.4784 40.2719C26.5904 39.3502 26.4784 38.3133 26.2544 37.3916C25.6944 34.1657 24.7984 30.9398 23.6784 27.8291C24.0144 29.6725 24.5744 31.5158 25.0224 33.3592C25.3584 35.2026 25.6944 37.1612 25.3584 39.0046C25.0224 40.8479 24.2384 42.5761 22.7824 43.4978C21.3264 44.4195 19.4224 44.3042 18.1904 42.9217C18.5264 43.613 18.7504 44.3042 19.4224 44.7651C19.9824 45.3411 20.9904 45.3411 21.6624 45.2259Z" fill="white"/>
<path opacity="0.22" d="M16.1744 3.05857C15.3904 5.13236 15.1664 7.20616 14.8304 9.39516C14.3824 12.5059 14.0464 15.5013 13.7104 18.612C13.5984 19.3033 13.5984 20.1098 13.5984 20.801C13.5984 21.0315 13.5984 21.1467 13.8224 21.2619C14.0464 21.3771 14.2704 21.0315 14.3824 20.6858C15.3904 15.9622 15.8384 11.1233 17.0704 6.51489C17.2944 5.59321 17.6304 4.4411 17.5184 3.4042C17.4064 2.25209 16.6224 1.90646 16.1744 3.05857Z" fill="white"/>
<path d="M83.7104 17.921C83.3744 14.5798 83.0384 11.2387 82.4784 8.01283C82.2544 6.16946 81.9184 4.4413 81.5824 2.59793C81.4704 1.90666 81.2464 1.2154 80.9104 0.639342C80.6864 0.40892 80.3504 0.178499 80.0144 0.178499C79.6784 0.0632878 79.2304 0.178499 79.0064 0.40892C78.4464 0.754553 78.1104 1.44582 77.7744 2.02187C76.8784 3.63482 76.0944 5.24777 75.3104 6.86072C73.8544 9.85621 72.5104 12.8517 71.2784 15.9624C70.2704 18.497 68.4784 21.3773 69.2624 24.1423C69.5984 25.4097 70.2704 26.4466 70.9424 27.4835C71.3904 28.1747 71.9504 28.866 72.6224 29.3268C73.2944 29.7877 74.1904 30.0181 74.9744 29.6725C75.3104 29.5573 75.6464 29.3268 75.8704 28.9812C75.9824 29.3268 76.2064 29.6725 76.5424 29.9029C77.2144 30.4789 78.1104 30.4789 78.8944 30.3637C79.6784 30.1333 80.3504 29.6725 81.0224 29.2116C82.0304 28.4051 82.9264 27.5987 83.5984 26.5618C84.8304 23.9119 83.9344 20.686 83.7104 17.921Z" fill="#6DBF3D"/>
<path d="M83.2624 26.3316C84.8304 23.9121 83.9344 20.571 83.7104 17.9212C83.3744 14.5801 83.0384 11.2389 82.4784 8.01305C82.2544 6.16967 81.9184 4.44151 81.5824 2.59814C81.4704 1.90687 81.2464 1.21561 80.9104 0.639554C80.6864 0.409133 80.3504 0.178711 80.0144 0.178711C79.9024 0.178711 79.7904 0.178711 79.6784 0.178711C80.1264 0.524343 80.3504 1.1004 80.6864 1.56124C81.3584 2.94377 81.4704 4.44151 81.4704 5.82404C81.5824 8.01304 81.4704 10.0868 81.2464 12.2758C80.9104 14.9257 80.4624 17.6908 79.0064 19.995C78.3344 21.1471 77.3264 22.184 76.0944 22.5296C74.6384 22.9904 72.9584 22.4144 71.5024 21.8383C71.2784 22.8752 71.8384 23.9121 72.6224 24.7186C73.4064 25.4099 74.3024 25.8707 75.3104 26.3316C76.6544 26.9076 78.1104 27.5989 79.5664 27.8293C80.3504 27.9445 81.1344 28.0597 82.0304 27.9445C82.4784 27.4837 82.9264 26.9076 83.2624 26.3316Z" fill="#5C9B34"/>
<path d="M73.9664 39.3504L58.0624 36.1245L51.6784 105.712L57.2784 110.666L62.7664 111.588L68.2544 112.394L75.0864 109.514L90.2064 41.309L73.9664 39.3504Z" fill="#6DBF3D"/>
<path d="M68.2544 112.394L82.9264 40.1567L90.2064 41.1936L75.0864 109.514L68.2544 112.394Z" fill="#5C9B34"/>
<path d="M57.2784 110.666L65.5664 39.4653L63.7744 39.9262L54.5904 108.246L57.2784 110.666Z" fill="#7DD146"/>
<path d="M90.2064 41.1935L84.1584 22.4141C84.0464 22.7597 83.9344 23.1054 83.8224 23.451C83.3744 24.1423 82.3664 24.3727 81.5824 24.1423C81.1344 24.0271 80.9104 23.7966 80.5744 23.5662C80.4624 23.451 80.2384 23.1054 80.0144 23.1054C79.7904 23.1054 79.5664 23.2206 79.3424 23.3358C78.7824 23.5662 78.1104 23.3358 77.6624 22.7597C76.8784 23.2206 75.9824 23.6814 75.0864 23.5662C74.3024 23.451 73.6304 22.8749 73.2944 22.1837C72.3984 22.5293 71.3904 22.5293 70.4944 21.9533C69.9344 21.6076 69.3744 20.9164 69.2624 20.2251L58.0624 36.1242L58.1744 36.1242C58.1744 36.2394 58.0624 36.3546 58.0624 36.4698C57.9504 38.198 58.9584 40.0414 60.3024 40.963C61.7584 41.9999 63.8864 42.1152 65.4544 41.1935C65.4544 42.1152 66.1264 42.8064 66.7984 43.3825C69.0384 45.2258 71.7264 46.3779 74.5264 46.6084C77.3264 46.7236 80.2384 45.8019 82.1424 43.6129C82.3664 44.5346 83.2624 44.8802 84.1584 44.9954C85.2784 45.2258 86.5104 45.1106 87.5184 44.765C88.6384 44.3042 89.8704 42.3456 90.2064 41.1935C90.2064 41.3087 90.2064 41.3087 90.2064 41.1935Z" fill="#FFCE80"/>
<path d="M90.2064 41.3087L84.1584 22.5293C84.0464 22.8749 83.9344 23.2206 83.8224 23.5662C83.3744 24.2575 82.3664 24.4879 81.5824 24.2575C81.1344 24.1422 80.9104 23.9118 80.5744 23.6814C80.4624 23.5662 80.2384 23.2206 80.0144 23.2206C80.2384 24.1422 80.5744 24.9487 80.6864 25.4096C81.4704 28.6355 81.8064 32.0918 81.8064 35.4329C81.8064 37.3915 81.6944 39.4653 80.6864 41.3087C79.4544 43.4977 77.1024 44.8802 74.6384 45.341C73.1824 45.6867 71.7264 45.6867 70.3824 45.6867C71.7264 46.2627 73.0704 46.6084 74.4144 46.7236C77.2144 46.8388 80.1264 45.9171 82.0304 43.7281C82.2544 44.6498 83.1504 44.9954 84.0464 45.1106C85.1664 45.341 86.3984 45.2258 87.4064 44.8802C88.6384 44.3041 89.8704 42.3456 90.2064 41.3087Z" fill="#FFBE71"/>
<path opacity="0.31" d="M66.6864 33.4747C66.1264 34.5115 65.5664 35.6637 64.6704 36.4701C63.2144 37.8527 60.8624 37.9679 59.1824 36.8158C59.7424 38.4287 60.7504 40.1569 62.3184 40.3873C63.2144 40.5025 64.1104 40.1569 64.7824 39.5808C65.4544 39.0048 66.0144 38.1983 66.3504 37.3918C67.6944 34.9724 68.4784 32.3225 69.3744 29.6727C69.5984 27.8293 70.6064 25.8707 71.1664 24.1426C70.0464 27.3685 68.1424 30.364 66.6864 33.4747Z" fill="white"/>
<path opacity="0.31" d="M73.4064 44.0738C75.7584 44.3042 78.3344 43.0369 79.2304 40.5023C79.5664 39.5806 79.6784 38.6589 79.7904 37.622C80.0144 34.2809 80.0144 31.055 79.6784 27.7139C79.5664 29.6725 79.6784 31.5158 79.5664 33.4744C79.4544 35.433 79.2304 37.2764 78.4464 39.0045C77.6624 40.7327 76.4304 42.2304 74.8624 42.6913C73.2944 43.1521 71.3904 42.5761 70.4944 40.9631C70.7184 41.7696 70.7184 42.4608 71.1664 43.0369C71.7264 43.7282 72.6224 43.9586 73.4064 44.0738Z" fill="white"/>
<path opacity="0.22" d="M78.5584 1.90674C77.3264 3.6349 76.5424 5.70869 75.6464 7.66728C74.5264 10.5475 73.4064 13.4278 72.2864 16.3081C72.0624 16.9994 71.7264 17.6906 71.6144 18.3819C71.6144 18.6123 71.5024 18.7275 71.7264 18.8427C71.9504 19.0731 72.2864 18.7275 72.3984 18.4971C74.5264 14.2343 76.2064 9.74107 78.5584 5.47827C79.1184 4.55659 79.6784 3.51969 79.7904 2.48279C79.9024 1.4459 79.2304 0.869841 78.5584 1.90674Z" fill="white"/>
<path d="M21.6624 70.4573C23.0064 71.2637 24.7984 71.3789 26.1424 70.5725C27.4864 69.8812 28.4944 68.2682 28.6064 66.7705C28.4944 69.4204 28.2704 72.0702 27.4864 74.4896C27.1504 75.4113 26.8144 76.333 26.0304 77.0243C25.3584 77.7155 24.2384 77.946 23.3424 77.4851C22.8944 77.2547 22.5584 76.7939 22.2224 76.333C20.4304 73.5679 18.9744 70.342 18.3024 67.0009C18.8624 67.577 20.0944 69.5356 21.6624 70.4573Z" fill="#413E49"/>
<path d="M62.7664 60.3184C62.5424 61.7009 62.4304 63.5443 62.4304 64.9268C62.4304 67.0006 62.5424 69.1896 63.5504 71.033C64.5584 72.8763 66.3504 74.3741 68.4784 74.2589C69.5984 74.2589 70.6064 73.6828 71.5024 73.1068C74.7504 70.9178 76.6544 67.1158 77.3264 63.1986L62.7664 60.3184Z" fill="#413E49"/>
<path d="M60.8624 51.3323C61.4224 50.2954 62.2064 49.3737 63.3264 49.0281C63.7744 48.9128 64.3344 48.7976 64.7824 49.0281C65.3424 49.2585 65.6784 49.8345 65.9024 50.2954C66.6864 52.0235 66.7984 53.8669 66.9104 55.7103C66.5744 54.3277 66.2384 52.83 65.2304 51.7931C64.6704 51.2171 63.8864 50.9866 63.1024 50.8714C62.7664 50.8714 62.4304 50.8714 62.2064 51.1018C61.9824 51.2171 61.8704 51.4475 61.6464 51.6779C60.7504 52.9452 60.1904 54.443 59.7424 56.0559C59.7424 54.6734 60.1904 52.7148 60.8624 51.3323Z" fill="#413E49"/>
<path d="M82.9264 55.3644C82.9264 54.2123 82.5904 52.945 81.8064 52.1385C81.4704 51.7929 81.0224 51.4473 80.4624 51.4473C79.9024 51.4473 79.3424 51.6777 78.8944 52.0233C77.4384 53.0602 76.4304 54.7884 75.5344 56.2861C76.4304 55.2492 77.4384 54.0971 78.7824 53.7515C79.5664 53.5211 80.3504 53.6363 81.0224 53.9819C81.3584 54.0971 81.5824 54.3275 81.6944 54.558C81.8064 54.7884 81.8064 55.0188 81.9184 55.3644C82.0304 56.9774 81.9184 58.5903 81.4704 60.0881C82.4784 58.8208 82.9264 56.9774 82.9264 55.3644Z" fill="#413E49"/>
<path d="M70.4944 68.9594C69.8224 68.7289 68.9264 68.7289 68.2544 69.1898C67.8064 68.6137 67.0224 68.3833 66.2384 68.3833C65.4544 68.4985 64.7824 68.8441 64.3344 69.305C63.8864 69.7658 63.5504 70.2267 63.3264 70.8027C63.3264 70.9179 63.4384 70.9179 63.4384 71.0331C64.4464 72.8765 66.2384 74.3743 68.3664 74.259C69.4864 74.259 70.4944 73.683 71.3904 73.1069C71.8384 72.8765 72.1744 72.5309 72.5104 72.1853C72.5104 71.8396 72.5104 71.494 72.3984 71.2636C72.1744 70.3419 71.5024 69.305 70.4944 68.9594Z" fill="#FF624D"/>
<path d="M61.8704 44.0736C61.4224 44.5345 60.9744 44.9953 60.8624 45.6866C61.0864 45.8018 61.3104 45.6866 61.5344 45.5714C62.6544 44.9953 63.7744 44.304 64.7824 43.4976C65.0064 43.3824 65.1184 43.1519 65.2304 42.9215C65.4544 41.6542 62.2064 43.728 61.8704 44.0736Z" fill="#413E49"/>
<path d="M84.7184 47.7607C84.9424 48.3367 85.0544 49.028 84.9424 49.604C84.7184 49.604 84.4944 49.3736 84.3824 49.2584C83.5984 48.2215 82.9264 47.0694 82.3664 45.9173C82.2544 45.6869 82.1424 45.4565 82.2544 45.226C82.5904 43.9587 84.6064 47.2998 84.7184 47.7607Z" fill="#413E49"/>
<path d="M9.00642 48.5669C8.78242 48.9125 8.55842 49.2582 8.67042 49.6038C8.67042 49.719 8.78242 49.8342 8.89442 49.9494C9.00642 50.0646 9.23042 50.0646 9.34242 49.9494C9.45442 49.8342 9.56642 49.719 9.67842 49.6038C10.5744 48.5669 11.8064 47.8756 13.1504 47.6452C13.3744 47.6452 13.4864 47.6452 13.7104 47.53C13.9344 47.4148 14.0464 47.0691 13.9344 46.8387C13.5984 46.1475 11.9184 46.6083 11.3584 46.8387C10.4624 47.0691 9.56642 47.7604 9.00642 48.5669Z" fill="#413E49"/>
<path d="M34.3184 45.5717C34.6544 45.8021 34.8784 46.1478 34.8784 46.4934C34.8784 46.6086 34.8784 46.7238 34.7664 46.839C34.6544 46.9542 34.4304 46.9542 34.3184 46.9542C34.2064 46.9542 33.9824 46.839 33.8704 46.7238C32.7504 45.9173 31.4064 45.4565 30.0624 45.5717C29.8384 45.5717 29.7264 45.5717 29.5024 45.5717C29.2784 45.4565 29.0544 45.2261 29.1664 44.8804C29.2784 44.074 31.0704 44.3044 31.6304 44.3044C32.6384 44.4196 33.5344 44.8805 34.3184 45.5717Z" fill="#413E49"/>
<path d="M44.8464 67.2311C44.9584 67.2311 45.0704 67.3463 45.1824 67.3463C45.2944 67.3463 45.4064 67.3463 45.4064 67.3463C45.8544 67.3463 46.3024 67.2311 46.7504 67.2311C46.8624 67.2311 47.0864 67.2311 47.1984 67.3463C47.3104 67.4615 47.3104 67.692 47.1984 67.8072C47.0864 67.9224 46.8624 68.0376 46.7504 68.0376C47.0864 68.1528 47.4224 68.1528 47.7584 68.268C48.0944 68.3832 48.4304 68.4984 48.6544 68.7289C48.8784 68.9593 49.1024 69.3049 49.1024 69.6505C49.1024 69.9962 48.8784 70.3418 48.5424 70.3418C48.5424 70.5722 48.5424 70.6874 48.3184 70.9179C48.2064 71.0331 47.9824 71.1483 47.8704 71.2635C47.5344 71.3787 47.1984 71.6091 46.7504 71.6091C46.1904 71.6091 45.7424 71.2635 45.2944 70.8026C44.7344 70.2266 44.1744 69.5353 43.6144 68.8441C43.2784 68.4984 43.0544 68.0376 42.8304 67.5767C42.6064 67.1159 42.4944 66.6551 42.4944 66.079C42.4944 65.8486 42.6064 65.6182 42.8304 65.6182C42.9424 65.6182 43.0544 65.6182 43.0544 65.7334C43.3904 65.9638 43.5024 66.3094 43.7264 66.5399C43.9504 66.8855 44.5104 67.1159 44.8464 67.2311Z" fill="#EF390F"/>
<path d="M44.3984 69.0747C44.6224 68.9595 44.8464 68.9595 44.9584 69.1899C45.0704 69.3051 44.9584 69.5355 44.8464 69.6508C45.0704 69.5355 45.2944 69.5355 45.4064 69.6508C45.5184 69.766 45.6304 69.9964 45.5184 70.2268C45.7424 70.1116 45.9664 70.1116 46.0784 70.342C46.1904 70.5724 46.0784 70.8029 45.9664 70.9181C45.8544 71.1485 45.6304 71.3789 45.4064 71.6093C45.2944 71.7245 45.1824 71.7246 45.0704 71.7246C44.9584 71.6093 44.9584 71.4941 44.8464 71.2637C44.8464 70.9181 44.6224 70.6877 44.3984 70.4572C44.2864 70.342 44.1744 70.2268 44.0624 70.1116C43.9504 69.9964 43.8384 69.8812 43.7264 69.766C43.7264 69.4203 44.1744 69.1899 44.3984 69.0747Z" fill="#5C9B34"/>
<path d="M18.5264 53.2905C19.5344 54.6731 19.8704 56.5164 19.9824 58.2446C20.0944 60.088 20.0944 62.1618 19.3104 63.7747C18.5264 65.3877 16.9584 66.7702 15.1664 66.5398C14.2704 66.4246 13.4864 65.8485 12.8144 65.2725C12.1424 64.6964 11.6944 63.7747 11.2464 62.853C10.4624 61.1249 9.90243 59.1663 9.67843 57.2077C9.56643 56.4012 9.56643 55.5947 9.79043 54.7883C10.2384 52.9449 11.9184 51.6776 13.5984 51.5624C14.3824 51.5624 15.2784 51.3319 16.0624 51.5624C17.0704 51.908 17.8544 52.4841 18.5264 53.2905Z" fill="#FFF3E9"/>
<path d="M9.67843 57.3233C9.56643 56.5169 9.56643 55.7104 9.79043 54.9039C9.90243 54.2127 10.2384 53.6366 10.6864 53.0605C10.5744 53.1758 10.5744 53.4062 10.5744 53.5214C10.3504 54.3279 10.4624 55.1343 10.4624 55.9408C10.6864 57.8994 11.1344 59.7428 12.0304 61.5861C12.4784 62.5078 12.9264 63.3143 13.5984 64.0056C14.2704 64.6968 15.0544 65.1577 15.9504 65.2729C17.2944 65.5033 18.5264 64.812 19.3104 63.6599L19.3104 63.7751C18.5264 65.5033 16.9584 66.7706 15.1664 66.5402C14.2704 66.425 13.4864 65.8489 12.8144 65.2729C12.1424 64.5816 11.6944 63.7751 11.2464 62.8535C10.4624 61.2405 9.90243 59.2819 9.67843 57.3233Z" fill="#FFE7C0"/>
<path d="M19.7584 56.747C16.8464 55.134 14.0464 55.8253 12.0304 57.5535C11.2464 58.1295 10.7984 59.2816 10.4624 59.9729C10.2384 59.3968 9.90243 57.323 10.0144 56.747C10.2384 56.2861 10.5744 55.8253 11.0224 55.5949C11.8064 55.0188 12.8144 54.7884 13.8224 54.6732C14.8304 54.558 15.8384 54.4428 16.7344 54.558C17.1824 54.558 17.7424 54.6732 18.1904 54.7884C18.5264 54.9036 19.1984 55.0188 19.4224 55.3645C19.5344 55.4797 19.5344 55.7101 19.5344 55.8253C19.7584 56.1709 19.7584 56.5166 19.7584 56.747Z" fill="#FFE7C0"/>
<path d="M19.4224 57.0927C19.7584 57.784 19.7584 58.5905 19.7584 59.2817C19.7584 60.3186 19.5344 61.3555 18.9744 62.162C18.4144 62.9685 17.4064 63.4293 16.5104 62.9685C16.2864 62.8533 16.0624 62.6228 15.8384 62.3924C14.8304 61.2403 14.3824 59.6274 14.7184 58.0144C14.8304 57.3231 15.1664 56.6319 15.7264 56.171C16.9584 55.1341 18.8624 55.595 19.4224 57.0927Z" fill="#413E49"/>
<path d="M18.9744 58.4754C18.9744 58.7058 18.9744 58.9363 18.8624 59.0515C18.7504 59.1667 18.6384 59.1667 18.5264 59.1667C18.1904 59.1667 17.8544 58.9363 17.5184 58.5906C17.1824 58.245 16.9584 57.7842 16.8464 57.2081C16.7344 56.4016 17.4064 55.8256 18.0784 56.2864C18.6384 56.6321 18.8624 57.7842 18.9744 58.4754Z" fill="white"/>
<path d="M18.9744 53.6364C18.3024 52.5995 17.2944 51.793 16.1744 51.3322C15.1664 50.9866 14.1584 50.8714 13.1504 50.9866C12.1424 51.1018 11.2464 51.3322 10.4624 52.0235C9.79041 52.5995 9.34241 53.6364 9.23041 54.5581C9.11841 55.4798 9.23041 56.5167 9.34241 57.4384C9.45441 58.1296 9.45441 58.2448 9.56641 58.9361C10.3504 58.0144 10.7984 56.7471 13.2624 55.3646C15.6144 54.0973 19.0864 53.8668 20.0944 57.3232C19.9824 57.0927 19.8704 55.9406 19.7584 55.595C19.6464 55.0189 19.4224 54.3277 18.9744 53.6364Z" fill="#FF8243"/>
<path d="M9.34244 54.5579C9.45444 53.6362 9.90244 52.7146 10.5744 52.0233C10.9104 51.6777 11.3584 51.4472 11.6944 51.332C11.0224 51.9081 10.6864 52.8298 10.5744 53.7515C10.4624 54.6731 10.5744 55.71 10.6864 56.6317C10.7984 57.323 10.6864 56.8621 10.7984 57.4382C10.3504 57.7838 10.0144 58.5903 9.67844 58.9359C9.56644 58.2447 9.56644 58.1295 9.45444 57.4382C9.23044 56.5165 9.11844 55.4796 9.34244 54.5579Z" fill="#EF390F"/>
<path opacity="0.3" d="M17.4064 52.5993C18.1904 53.1753 18.8624 53.8666 19.0864 54.6731C19.0864 54.7883 19.0864 54.9035 18.9744 54.9035C18.8624 54.9035 18.8624 54.9035 18.8624 54.7883C17.6304 53.6362 16.3984 52.3688 14.7184 51.7928C14.6064 51.7928 14.3824 51.6776 14.3824 51.5624C14.8304 51.332 15.5024 51.6776 15.9504 51.7928C16.3984 52.0232 16.9584 52.2536 17.4064 52.5993Z" fill="white"/>
<path d="M35.9984 52.5994C36.5584 54.2124 36.4464 56.0557 36.2224 57.7839C35.8864 59.6273 35.3264 61.5859 34.2064 62.9684C33.0864 64.3509 31.1824 65.2726 29.5024 64.5813C28.7184 64.2357 28.0464 63.5444 27.5984 62.6228C27.1504 61.8163 26.9264 60.8946 26.7024 59.8577C26.3664 57.8991 26.3664 55.9405 26.5904 54.0972C26.7024 53.2907 26.9264 52.4842 27.2624 51.7929C28.1584 50.0648 30.0624 49.2583 31.7424 49.7192C32.5264 49.9496 33.4224 49.9496 34.0944 50.2952C34.9904 50.8713 35.6624 51.6777 35.9984 52.5994Z" fill="#FFF3E9"/>
<path d="M26.4784 54.0974C26.5904 53.2909 26.8144 52.4844 27.1504 51.7931C27.4864 51.1019 27.9344 50.641 28.4944 50.2954C28.3824 50.4106 28.2704 50.641 28.2704 50.7563C27.9344 51.4475 27.7104 52.254 27.5984 53.0605C27.2624 55.0191 27.3744 56.9776 27.7104 58.821C27.9344 59.7427 28.1584 60.7796 28.6064 61.5861C29.0544 62.3925 29.7264 63.0838 30.5104 63.5447C31.7424 64.1207 33.0864 63.7751 34.2064 62.9686C34.2064 62.9686 34.2064 63.0838 34.0944 63.0838C32.9744 64.4663 31.0704 65.388 29.3904 64.6968C28.6064 64.3511 27.9344 63.6599 27.4864 62.7382C27.0384 61.9317 26.8144 61.01 26.5904 59.9731C26.2544 58.0145 26.2544 56.0559 26.4784 54.0974Z" fill="#FFE7C0"/>
<path d="M36.3344 56.2864C33.8704 53.9822 31.0704 53.867 28.7184 55.0191C27.8224 55.4799 27.1504 56.4016 26.5904 56.9776C26.5904 56.4016 26.7024 54.3278 27.0384 53.7517C27.3744 53.2909 27.8224 53.0605 28.3824 52.9453C29.2784 52.7148 30.2864 52.7148 31.2944 52.7148C32.3024 52.8301 33.1984 53.0605 34.2064 53.4061C34.6544 53.6365 35.1024 53.7517 35.5504 54.0974C35.8864 54.3278 36.4464 54.5582 36.6704 55.0191C36.7824 55.1343 36.6704 55.3647 36.6704 55.4799C36.4464 55.7103 36.4464 55.9407 36.3344 56.2864Z" fill="#FFE7C0"/>
<path d="M35.7744 56.1708C35.8864 56.8621 35.8864 57.6686 35.6624 58.475C35.4384 59.5119 34.9904 60.4336 34.3184 61.1249C33.6464 61.8162 32.5264 61.9314 31.7424 61.3553C31.5184 61.1249 31.2944 60.8945 31.1824 60.664C30.3984 59.3967 30.3984 57.5534 31.0704 56.1708C31.4064 55.4796 31.8544 54.9035 32.5264 54.5579C33.7584 53.8666 35.4384 54.6731 35.7744 56.1708Z" fill="#413E49"/>
<path d="M34.9904 57.4384C34.9904 57.6688 34.8784 57.8993 34.7664 58.0145C34.6544 58.0145 34.5424 58.0145 34.4304 58.0145C34.0944 57.8993 33.7584 57.5536 33.6464 57.208C33.4224 56.7471 33.3104 56.2863 33.3104 55.7103C33.3104 54.9038 34.0944 54.5581 34.6544 55.1342C35.1024 55.595 35.1024 56.8624 34.9904 57.4384Z" fill="white"/>
<path d="M36.4464 53.0602C35.9984 51.9081 35.3264 50.8712 34.3184 50.0648C33.5344 49.4887 32.5264 49.0279 31.5184 48.9127C30.6224 48.7974 29.6144 48.7974 28.7184 49.1431C27.8224 49.6039 27.2624 50.4104 26.8144 51.2169C26.4784 52.1386 26.2544 53.0602 26.1424 53.9819C26.0304 54.6732 26.0304 54.7884 26.0304 55.4797C27.0384 54.9036 27.8224 53.6363 30.5104 53.0602C33.0864 52.4842 36.5584 53.1755 36.6704 56.8622C36.6704 56.5166 36.8944 55.4797 36.7824 55.134C36.6704 54.558 36.6704 53.7515 36.4464 53.0602Z" fill="#FF8243"/>
<path d="M26.8144 51.332C27.1504 50.4103 27.8224 49.7191 28.7184 49.2582C29.1664 49.0278 29.6144 48.9126 30.0624 48.9126C29.2784 49.3734 28.7184 50.0647 28.3824 50.8712C28.0464 51.7929 27.8224 52.7146 27.7104 53.6362C27.5984 54.3275 27.7104 53.8667 27.5984 54.4427C27.0384 54.6731 26.4784 55.3644 26.0304 55.5948C26.0304 54.9036 26.0304 54.7883 26.1424 54.0971C26.2544 53.1754 26.4784 52.2537 26.8144 51.332Z" fill="#EF390F"/>
<path opacity="0.3" d="M35.1024 51.5626C35.7744 52.2539 36.1104 53.1756 36.2224 54.0972C36.2224 54.2125 36.2224 54.3277 36.1104 54.3277C35.9984 54.3277 35.9984 54.2125 35.9984 54.2125C35.1024 52.7147 34.2064 51.217 32.7504 50.1801C32.6384 50.0649 32.4144 49.9497 32.4144 49.8345C32.9744 49.7192 33.5344 50.1801 33.8704 50.5257C34.3184 50.7561 34.7664 51.1018 35.1024 51.5626Z" fill="white"/>
</svg>
