<svg width="110" height="110" viewBox="0 0 110 110" fill="none" xmlns="http://www.w3.org/2000/svg">
<path d="M98.01 53.5696C101.2 49.9396 103.18 45.2096 104.28 40.4796C104.72 38.7196 105.05 36.9596 106.26 35.6396C106.26 41.4696 105.05 47.4096 102.52 52.6896C99.88 58.2996 95.59 63.5796 89.76 65.4496C88 65.9996 85.91 66.2196 84.48 65.1196C80.96 62.4796 85.36 60.3896 87.56 59.8396C91.63 58.6296 95.04 56.8696 98.01 53.5696Z" fill="#4390FF"/>
<path d="M94.6 15.8396L92.84 25.6296L86.79 24.0896L90.31 14.8496L94.6 15.8396Z" fill="#4D96FF"/>
<path d="M10.23 18.3696L20.9 104.94C20.9 104.94 21.12 106.37 22.55 107.47C23.98 108.57 26.07 109.45 26.07 109.45L24.2 18.9196L10.23 18.3696Z" fill="#4390FF"/>
<path d="M102.63 35.09C102.41 34.76 102.19 34.54 102.19 34.1C102.08 33.77 102.3 33.33 102.63 33.22C102.96 33.11 103.4 33.44 103.51 33.77C103.73 34.1 103.84 34.43 104.17 34.65C104.17 33.33 104.28 31.9 104.5 30.58C104.61 30.25 104.72 29.81 105.05 29.81C105.27 29.81 105.6 29.92 105.71 30.25C105.82 30.47 105.82 30.8 105.82 31.02C106.04 30.69 105.93 30.25 106.04 29.81C106.15 29.37 106.59 29.04 106.92 29.26C107.14 29.37 107.14 29.7 107.14 29.92C107.14 30.36 107.14 30.8 107.14 31.13C107.14 30.91 107.14 30.8 107.25 30.69C107.36 30.58 107.47 30.47 107.69 30.47C107.8 30.47 107.91 30.58 107.91 30.69C108.46 31.46 108.35 32.56 108.13 33.44C107.58 36.41 106.59 39.38 105.16 42.02C104.72 42.9 104.5 42.02 104.39 41.47C104.28 40.7 104.39 39.93 104.28 39.16C103.95 37.73 103.4 36.3 102.63 35.09Z" fill="#4390FF"/>
<path d="M15.4 65.9997C11.66 69.0797 9.02004 73.3697 7.04004 77.8797C6.38004 79.5297 5.72004 81.1797 4.29004 82.2797C5.17004 76.4497 7.48004 70.9497 10.78 66.1097C14.3 60.9397 19.36 56.5397 25.41 55.6597C27.28 55.3297 29.37 55.5497 30.58 56.8697C33.55 60.0597 28.93 61.3797 26.73 61.5997C22.55 62.0397 18.81 63.2497 15.4 65.9997Z" fill="#4390FF"/>
<path d="M7.81002 83.4898C7.92002 83.8198 8.14002 84.1498 8.14002 84.4798C8.14002 84.8098 7.92002 85.2498 7.59002 85.2498C7.26002 85.2498 6.93002 84.9198 6.71002 84.5898C6.60002 84.2598 6.49002 83.8198 6.27002 83.5998C6.05002 84.9198 5.72002 86.2398 5.28002 87.5598C5.17002 87.8898 4.95002 88.2198 4.62002 88.2198C4.40002 88.2198 4.18002 87.9998 4.07002 87.7798C3.96002 87.5598 4.07002 87.2298 4.07002 87.0098C3.85002 87.3398 3.85002 87.7798 3.74002 88.2198C3.63002 88.6598 3.08002 88.8798 2.75002 88.6598C2.53002 88.4398 2.64002 88.2198 2.64002 87.9998C2.75002 87.5598 2.75002 87.1198 2.86002 86.7898C2.86002 86.8998 2.75002 87.1198 2.64002 87.2298C2.53002 87.3398 2.31002 87.4498 2.20002 87.3398C2.09002 87.3398 2.09002 87.2298 1.98002 87.1198C1.54002 86.2398 1.87002 85.2498 2.20002 84.3698C3.19002 81.5098 4.73002 78.7598 6.60002 76.3398C7.26002 75.5698 7.26002 76.4498 7.26002 76.9998C7.26002 77.7698 7.04002 78.5398 7.04002 79.1998C6.93002 80.6298 7.26002 82.0598 7.81002 83.4898Z" fill="#4390FF"/>
<path d="M15.73 24.0898L26.18 109.45H88.44L98.34 24.0898H15.73Z" fill="#5AB1FF"/>
<path d="M15.7301 24.0897C15.7301 24.0897 10.0101 22.3297 10.2301 18.4797C10.4501 14.6297 17.0501 13.9697 17.0501 13.9697H93.7201L94.7101 15.8397L92.9501 16.0597L87.6701 21.1197L96.9101 21.8897L98.4501 24.0897H15.7301Z" fill="#83C4FF"/>
<path d="M92.95 15.9497H16.72L16.28 21.2297L96.03 21.7797C96.03 21.7797 94.27 20.3497 93.39 18.8097C92.18 16.8297 92.95 15.9497 92.95 15.9497Z" fill="#FFECBB"/>
<path d="M16.72 15.9499C16.72 15.9499 13.75 15.6199 13.09 17.9299C12.32 21.0099 16.28 21.2299 16.28 21.2299L16.72 15.9499Z" fill="#4D96FF"/>
<path d="M17.8201 17.6C20.1301 17.71 22.3301 17.71 24.6401 17.71C26.9501 17.71 29.1501 17.71 31.4601 17.71C35.9701 17.71 40.5901 17.71 45.1001 17.71C54.1201 17.71 63.2501 17.82 72.2701 17.71C74.8001 17.71 77.3301 17.6 79.9701 17.6C82.5001 17.6 85.0301 17.6 87.6701 17.6C87.7801 17.6 87.7801 17.49 87.6701 17.49C83.1601 17.38 78.5401 17.49 74.0301 17.38C69.5201 17.27 64.9001 17.27 60.3901 17.27C51.3701 17.27 42.2401 17.27 33.2201 17.27C30.6901 17.27 28.1601 17.27 25.5201 17.27C22.9901 17.38 20.4601 17.38 17.8201 17.6Z" fill="#FFCB92"/>
<path d="M17.8201 19.4699C20.0201 19.5799 22.3301 19.5799 24.5301 19.5799C26.7301 19.5799 29.0401 19.5799 31.2401 19.5799C35.7501 19.5799 40.1501 19.5799 44.6601 19.5799C45.8701 19.5799 47.1901 19.5799 48.4001 19.5799C49.6101 19.5799 50.9301 19.5799 52.1401 19.5799C52.2501 19.5799 52.2501 19.3599 52.1401 19.3599C51.0401 19.2499 49.8301 19.3599 48.7301 19.3599C47.6301 19.3599 46.5301 19.3599 45.4301 19.3599C43.2301 19.3599 40.9201 19.3599 38.7201 19.3599C34.2101 19.3599 29.8101 19.3599 25.3001 19.3599C22.8801 19.3599 20.3501 19.2499 17.8201 19.4699Z" fill="#FFCB92"/>
<path d="M23.98 18.5897C26.18 18.6997 28.38 18.5897 30.69 18.5897C32.89 18.5897 35.09 18.5897 37.4 18.5897C41.8 18.5897 46.31 18.5897 50.71 18.5897C59.51 18.5897 68.42 18.5897 77.22 18.5897C79.75 18.5897 82.17 18.5897 84.7 18.5897C87.23 18.5897 89.65 18.5897 92.18 18.5897C92.29 18.5897 92.29 18.3697 92.18 18.3697C87.78 18.2597 83.27 18.3697 78.87 18.3697C74.47 18.3697 69.96 18.3697 65.56 18.3697C56.76 18.3697 47.85 18.3697 39.05 18.3697C36.52 18.3697 34.1 18.3697 31.57 18.3697C28.93 18.4797 26.4 18.4797 23.98 18.5897C23.87 18.5897 23.87 18.5897 23.98 18.5897Z" fill="#FFCB92"/>
<path d="M21.89 20.68C30.91 20.79 40.04 20.79 49.06 20.79C58.08 20.79 67.1 20.79 76.12 20.79C81.18 20.79 86.24 20.79 91.41 20.79C91.63 20.79 91.63 20.46 91.41 20.46C82.39 20.35 73.26 20.46 64.24 20.46C55.22 20.46 46.2 20.46 37.18 20.46C32.01 20.57 26.95 20.57 21.89 20.68C21.78 20.68 21.78 20.68 21.89 20.68Z" fill="#FFCB92"/>
<path d="M54.34 18.3697L52.36 11.4397L75.35 6.92969L77.77 18.3697H54.34Z" fill="#FFC043"/>
<path d="M70.29 18.5898C69.96 15.5098 70.18 12.2098 71.17 9.2398C72.16 6.2698 74.14 3.5198 76.78 1.8698C76.56 3.4098 76.45 4.9498 76.56 6.4898C77.33 4.5098 79.31 3.2998 81.18 2.1998C82.5 1.4298 83.82 0.659805 85.36 0.549805C83.16 3.1898 82.06 6.59981 81.29 10.0098C80.63 12.7598 80.08 15.8398 81.07 18.4798L70.29 18.5898Z" fill="#E86A43"/>
<path d="M21.01 19.47L23.21 9.45996L41.58 14.52L40.37 19.47H21.01Z" fill="#7FC133"/>
<path d="M26.84 33.9897C26.4 34.5397 26.07 35.1998 25.96 35.9698C25.96 36.0798 25.96 36.1897 25.96 36.2997C26.07 36.5197 26.4 36.4097 26.62 36.2997C29.59 34.4297 32.56 32.6697 35.53 30.7997C35.86 30.5797 36.19 30.3597 36.41 30.0297C36.63 29.6997 36.74 29.2597 36.52 28.9297C36.41 28.7097 36.19 28.5997 35.86 28.4897C33.88 27.7197 32.67 28.9298 31.13 29.9198C29.48 30.9098 28.05 32.3397 26.84 33.9897Z" fill="#413E49"/>
<path d="M85.03 33.3296C85.47 33.8796 85.8 34.5396 85.91 35.3096C85.91 35.4196 85.91 35.5296 85.91 35.6396C85.8 35.8596 85.47 35.7496 85.25 35.6396C82.28 33.7696 79.31 32.0096 76.34 30.1396C76.01 29.9196 75.68 29.6996 75.46 29.3696C75.24 29.0396 75.13 28.5996 75.35 28.2696C75.46 28.0496 75.68 27.9396 76.01 27.8296C77.99 27.0596 79.2 28.2696 80.74 29.2596C82.39 30.3596 83.93 31.6796 85.03 33.3296Z" fill="#413E49"/>
<path d="M56.54 68.5299C56.43 68.5299 56.43 68.5299 56.54 68.5299C56.43 68.5299 56.32 68.5299 56.32 68.5299C51.15 68.6399 45.98 66.1099 42.79 62.1499C43.23 64.0199 43.78 65.7799 44.22 67.6499C44.99 70.5099 45.76 73.3699 47.19 75.8999C48.62 78.4299 50.93 80.6299 53.68 81.3999C54.56 81.6199 55.55 81.7299 56.43 81.7299C57.31 81.8399 58.3 81.7299 59.18 81.3999C61.93 80.6299 64.24 78.4299 65.67 75.8999C67.1 73.3699 67.87 70.5099 68.64 67.6499C69.08 65.8899 69.63 64.0199 70.07 62.1499C66.88 66.1099 61.6 68.6399 56.54 68.5299Z" fill="#413E49"/>
<path d="M56.43 68.5297C56.32 68.5297 56.21 68.5297 56.21 68.5297C52.25 68.6397 48.29 67.0997 45.21 64.6797C45.32 65.4497 45.32 66.2197 45.32 66.9897C45.32 67.2097 45.32 67.5397 45.43 67.7597C45.54 68.0897 45.76 68.4197 46.09 68.7497C47.96 70.8397 50.71 71.8297 53.46 72.2697C57.97 72.9297 62.7 71.8297 66.55 69.1897C66.77 69.0797 66.99 68.8597 67.21 68.5297C67.32 68.1997 67.32 67.7597 67.32 67.4297C67.21 66.6597 67.1 65.7797 66.99 65.0097C63.91 67.3197 60.17 68.6397 56.43 68.5297Z" fill="white"/>
<path d="M63.69 78.4297C63.69 78.3197 63.58 78.2097 63.47 77.9897C62.48 75.8997 60.06 74.5797 57.86 74.7997C56.87 74.9097 55.88 75.3497 55.66 76.2297C54.23 75.1297 52.14 75.1297 50.71 76.2297C49.72 76.8897 49.39 77.7697 49.28 78.6497C50.49 79.8597 51.92 80.8497 53.57 81.2897C54.45 81.5097 55.44 81.6197 56.32 81.6197C57.2 81.7297 58.19 81.6197 59.07 81.2897C60.83 80.8497 62.37 79.8597 63.69 78.4297Z" fill="#FF624D"/>
<path d="M41.69 62.9199C41.58 62.8099 41.58 62.4799 41.58 62.3699C41.58 62.1499 41.58 62.0399 41.58 61.8199C41.69 61.4899 41.8 61.1599 42.02 60.8299C42.24 60.6099 42.57 60.4999 42.9 60.4999C43.23 60.4999 43.56 60.8299 43.78 60.9399C43.89 61.0499 44 60.9399 43.89 60.8299C43.67 60.4999 43.45 60.2799 43.12 60.1699C42.79 60.0599 42.46 60.0599 42.13 60.2799C41.47 60.6099 41.14 61.3799 41.14 62.0399C41.14 62.2599 41.14 62.4799 41.25 62.5899C41.47 62.9199 41.58 62.9199 41.69 62.9199C41.8 63.0299 41.8 62.9199 41.69 62.9199Z" fill="#413E49"/>
<path d="M68.97 61.93C69.19 61.6 69.5199 61.27 69.9599 61.05C70.3999 60.83 70.8399 60.83 71.1699 61.16C71.9399 61.82 71.5 62.92 71.28 63.8C71.28 63.91 71.39 63.91 71.39 63.8C71.83 63.03 72.1599 62.0401 71.7199 61.2701C71.4999 60.9401 71.28 60.72 70.95 60.61C70.51 60.5 70.07 60.61 69.74 60.83C69.52 60.94 69.41 61.0501 69.3 61.2701C68.97 61.4901 68.97 61.71 68.97 61.93C68.86 61.93 68.86 61.93 68.97 61.93Z" fill="#413E49"/>
<path d="M29.59 40.6996C28.93 43.3396 29.48 46.1996 30.25 48.7296C31.13 51.5896 32.34 54.3396 34.43 56.3196C36.52 58.2996 39.82 59.1796 42.24 57.7496C43.45 56.9796 44.44 55.7696 44.99 54.4496C45.54 53.0196 45.76 51.5896 45.87 50.0496C46.09 47.0796 45.76 43.9996 44.88 41.0296C44.55 39.8196 44.11 38.6096 43.34 37.6196C41.58 35.1996 38.39 34.3196 35.75 35.3096C34.54 35.7496 33.11 35.9696 32.01 36.7396C30.8 37.7296 29.92 39.1596 29.59 40.6996Z" fill="#3B82FF"/>
<path d="M30.1401 42.1298C29.4801 44.6598 30.0301 47.4098 30.8001 49.9398C31.6801 52.6898 32.7801 55.4398 34.8701 57.4198C36.9601 59.2898 40.0401 60.1698 42.3501 58.8498C43.5601 58.1898 44.4401 56.9798 44.9901 55.6598C45.5401 54.3398 45.7601 52.7998 45.8701 51.3698C46.0901 48.3998 45.7601 45.4298 44.8801 42.6798C44.5501 41.4698 44.1101 40.3698 43.3401 39.3798C41.5801 36.9598 38.6101 36.1898 35.9701 37.0698C34.7601 37.5098 33.4401 37.6198 32.3401 38.4998C31.3501 39.3798 30.4701 40.6998 30.1401 42.1298Z" fill="#FFF3E9"/>
<path d="M44.99 42.6794C44.66 41.4694 44.22 40.3694 43.45 39.3794C42.79 38.4994 42.02 37.8394 41.14 37.3994C41.36 37.6194 41.47 37.8394 41.69 38.0594C42.35 39.0494 42.79 40.2594 43.23 41.3594C44 44.2194 44.33 47.1894 44.22 50.0494C44.11 51.4794 43.89 53.0194 43.34 54.3394C42.79 55.6594 41.91 56.8694 40.7 57.5294C38.94 58.5194 36.74 58.2994 34.87 57.3094L34.98 57.4194C37.07 59.2894 40.15 60.1694 42.46 58.8494C43.67 58.1894 44.55 56.9794 45.1 55.6594C45.65 54.3394 45.87 52.7994 45.98 51.3694C46.09 48.5094 45.76 45.4294 44.99 42.6794Z" fill="#FFE7C0"/>
<path d="M33.88 46.9696C33.66 48.0696 33.77 49.2796 34.1 50.3796C34.43 51.9196 35.09 53.3496 36.3 54.3396C37.4 55.3296 39.16 55.5496 40.26 54.6696C40.59 54.3396 40.92 54.0096 41.14 53.5696C42.24 51.5896 42.35 48.9496 41.25 46.7496C40.81 45.7596 40.04 44.7696 39.05 44.3296C36.96 43.3396 34.32 44.6596 33.88 46.9696Z" fill="#413E49"/>
<path d="M35.09 48.8398C35.09 49.1698 35.2 49.4998 35.53 49.6098C35.64 49.7198 35.86 49.7198 36.08 49.6098C36.63 49.4998 37.07 48.9498 37.29 48.3998C37.62 47.7398 37.84 46.9698 37.84 46.0898C37.73 44.8798 36.52 44.3298 35.75 45.2098C34.98 46.0898 34.98 47.8498 35.09 48.8398Z" fill="white"/>
<path opacity="0.3" d="M31.24 48.3996C31.35 50.0496 31.9 51.5896 32.89 52.7996C33 52.9096 33.22 53.1296 33.33 52.9096C33.44 52.7996 33.33 52.6896 33.33 52.5796C32.56 49.7196 31.79 46.7496 32.34 43.8896C32.34 43.6696 32.45 43.3396 32.23 43.1196C31.46 43.5596 31.35 44.6596 31.24 45.4296C31.24 46.5296 31.24 47.5196 31.24 48.3996Z" fill="white"/>
<path d="M33.4399 41.4697C34.5399 40.8097 35.8599 40.4797 37.1799 40.3697C38.4999 40.2597 39.82 40.2597 41.14 40.5897C42.46 40.9197 43.6699 41.5797 44.5499 42.4597C44.2199 40.8097 43.0099 39.3797 41.4699 38.6097C39.9299 37.8397 38.1699 37.5097 36.5199 37.6197C35.6399 37.6197 34.8699 37.8397 33.9899 38.1697C32.4499 38.8297 31.2399 40.1497 30.5799 41.5797C30.2499 42.2397 30.0299 43.0097 29.9199 43.6697C29.8099 44.1097 29.5899 45.2097 30.0299 45.5397C30.3599 45.8697 30.5799 44.7697 30.7999 44.4397C31.1299 43.8897 31.4599 43.2297 31.7899 42.7897C32.2299 42.3497 32.7799 41.7997 33.4399 41.4697Z" fill="#FFE7C0"/>
<path d="M31.02 42.6797C32.01 41.0297 33.22 40.4797 34.54 40.0397C35.09 39.9297 35.64 39.8197 36.19 39.7097C37.95 39.4897 39.71 39.4897 41.47 39.8197C42.57 40.0397 44.22 41.0297 44.88 42.0197C44.44 41.2497 43.78 39.5997 43.34 38.7197C43.23 38.3897 43.01 38.0597 42.79 37.8397C42.57 37.5097 42.24 37.3997 41.91 37.1797C41.25 36.7397 40.48 36.4097 39.71 36.1897C38.94 35.9697 38.06 36.0797 37.29 36.0797C35.2 36.2997 33.11 36.8497 31.57 38.1697C30.47 39.1597 29.81 40.4797 29.59 41.9097C29.37 43.1197 29.26 45.8697 29.81 47.0797C30.03 46.9697 30.36 43.8897 31.02 42.6797Z" fill="#3B82FF"/>
<path opacity="0.34" d="M30.8 39.4895C30.03 40.5895 29.81 42.0195 30.03 43.3395C30.14 42.0195 30.8 40.8095 31.68 39.9295C32.56 38.9395 33.66 38.2795 34.87 37.8395C35.42 37.6195 35.97 37.5095 36.41 37.0695C36.41 37.0695 36.52 36.9595 36.52 36.8495C36.52 36.6295 36.3 36.6295 36.08 36.5195C34.1 36.5195 31.9 37.8395 30.8 39.4895Z" fill="white"/>
<path d="M69.96 37.8398C68.42 40.0398 67.87 42.8998 67.65 45.6498C67.43 48.6198 67.54 51.6998 68.75 54.3398C69.96 56.9798 72.71 58.9598 75.46 58.5198C76.89 58.2998 78.21 57.5298 79.2 56.4298C80.19 55.3298 81.07 54.0098 81.62 52.6898C82.94 49.9398 83.71 46.9698 84.04 43.9998C84.15 42.7898 84.15 41.4698 83.82 40.2598C83.05 37.2898 80.41 35.4198 77.55 35.3098C76.23 35.3098 74.91 34.9798 73.59 35.3098C72.27 35.6398 70.84 36.6298 69.96 37.8398Z" fill="#3B82FF"/>
<path d="M69.96 39.4897C68.42 41.5797 67.98 44.4397 67.76 47.0797C67.54 49.9397 67.65 52.9097 68.86 55.4397C70.07 57.9697 72.6 59.9497 75.35 59.5097C76.78 59.2897 77.99 58.5197 78.98 57.5297C79.97 56.5397 80.74 55.2197 81.4 53.8997C82.61 51.2597 83.49 48.3997 83.71 45.4297C83.82 44.2197 83.82 42.8997 83.6 41.7997C82.94 38.9397 80.3 37.0697 77.55 36.9597C76.23 36.9597 75.02 36.6297 73.7 36.9597C72.05 37.2897 70.84 38.1697 69.96 39.4897Z" fill="#FFF3E9"/>
<path d="M83.6 45.3199C83.71 44.1099 83.71 42.7899 83.49 41.6899C83.27 40.5899 82.72 39.7099 82.06 38.9399C82.17 39.1599 82.28 39.4899 82.28 39.7099C82.61 40.9199 82.5 42.1299 82.39 43.3399C82.17 46.3099 81.29 49.1699 80.08 51.8099C79.42 53.1299 78.65 54.4499 77.66 55.4399C76.67 56.4299 75.35 57.3099 74.03 57.4199C72.05 57.7499 70.07 56.6499 68.75 55.1099C68.75 55.2199 68.75 55.2199 68.86 55.3299C70.07 57.8599 72.6 59.8399 75.35 59.3999C76.78 59.1799 77.99 58.4099 78.98 57.4199C79.97 56.4299 80.74 55.1099 81.4 53.7899C82.5 51.1499 83.27 48.2899 83.6 45.3199Z" fill="#FFE7C0"/>
<path d="M71.72 45.3199C71.06 46.3099 70.84 47.4099 70.73 48.6199C70.51 50.1599 70.62 51.8099 71.28 53.1299C71.94 54.4499 73.48 55.3299 74.91 54.8899C75.35 54.7799 75.79 54.4499 76.12 54.2299C77.88 52.7999 78.87 50.3799 78.76 47.9599C78.65 46.8599 78.32 45.6499 77.55 44.8799C75.9 43.1199 72.93 43.3399 71.72 45.3199Z" fill="#413E49"/>
<path d="M72.16 47.5198C72.05 47.8498 72.05 48.1798 72.27 48.3998C72.38 48.5098 72.6 48.6198 72.71 48.6198C73.26 48.7298 73.81 48.3998 74.36 47.9598C74.91 47.4098 75.46 46.7498 75.68 46.0898C76.01 44.8798 75.13 43.9998 74.03 44.4398C72.93 44.8798 72.38 46.5298 72.16 47.5198Z" fill="white"/>
<path opacity="0.3" d="M68.75 45.7596C68.2 47.2996 68.2 48.9496 68.64 50.4896C68.64 50.7096 68.86 50.9296 68.97 50.8196C69.08 50.8196 69.08 50.7096 69.08 50.5996C69.41 47.7396 69.74 44.6596 71.39 42.2396C71.5 42.0196 71.72 41.7996 71.61 41.5796C70.73 41.6896 70.29 42.6796 69.85 43.3396C69.41 43.9996 68.97 44.8796 68.75 45.7596Z" fill="white"/>
<path d="M73.26 40.0397C74.58 39.8197 75.9 40.0397 77.11 40.4797C78.32 40.8097 79.64 41.3597 80.63 42.1297C81.73 42.8997 82.61 43.8897 83.16 45.0997C83.38 43.4497 82.83 41.6897 81.73 40.3697C80.63 39.0497 79.09 38.1697 77.44 37.6197C76.67 37.3997 75.79 37.1797 74.91 37.1797C73.26 37.1797 71.61 37.9497 70.51 39.1597C69.96 39.7097 69.52 40.2597 69.19 40.9197C68.97 41.2497 68.31 42.2397 68.53 42.6797C68.75 43.1197 69.41 42.1297 69.63 41.9097C70.07 41.4697 70.62 41.0297 71.17 40.6997C71.83 40.3697 72.49 40.1497 73.26 40.0397Z" fill="#FFE7C0"/>
<path d="M70.62 40.2598C72.16 39.0498 73.48 38.9398 74.8 39.0498C75.35 39.0498 75.9 39.1598 76.45 39.3798C78.21 39.8198 79.86 40.4798 81.4 41.3598C82.39 41.9098 83.49 43.4498 83.82 44.6598C83.71 43.7798 83.71 41.9098 83.6 41.0298C83.6 40.6998 83.49 40.3698 83.38 40.0398C83.27 39.7098 83.05 39.3798 82.72 39.1598C82.17 38.4998 81.73 37.9498 81.07 37.5098C80.41 37.0698 79.64 36.7398 78.87 36.5198C76.89 35.9698 74.69 35.6398 72.71 36.4098C71.39 36.9598 70.29 37.9498 69.52 39.0498C68.86 40.0398 67.76 42.6798 67.76 43.8898C68.09 43.8898 69.52 41.1398 70.62 40.2598Z" fill="#3B82FF"/>
<path opacity="0.34" d="M71.5 37.29C70.4 38.06 69.63 39.27 69.3 40.59C69.85 39.49 70.95 38.61 72.05 38.06C73.26 37.51 74.47 37.29 75.7901 37.29C76.34 37.29 77.0001 37.4 77.4401 37.07C77.55 37.07 77.55 36.96 77.55 36.96C77.66 36.85 77.4401 36.63 77.3301 36.52C75.6801 35.64 73.15 36.08 71.5 37.29Z" fill="white"/>
</svg>
