<svg width="237" height="231" viewBox="0 0 237 231" fill="none" xmlns="http://www.w3.org/2000/svg">
<g opacity="0.5" clip-path="url(#clip0_5_793)">
<path d="M81.3621 197.455C80.2591 193.891 76.5255 191.922 72.9615 193.025L70.3479 193.834L63.9327 195.819L67.9037 208.65L76.9325 205.855C80.4964 204.752 82.4652 201.019 81.3621 197.455Z" stroke="black" stroke-width="3" stroke-miterlimit="10"/>
<path d="M74.7776 185.433C73.6745 181.869 69.9409 179.9 66.3769 181.004L59.9618 182.989L63.9328 195.819L70.3479 193.834C73.9119 192.731 75.8806 188.997 74.7776 185.433Z" stroke="black" stroke-width="3" stroke-miterlimit="10"/>
<path d="M53.936 227.032L105.257 211.148L89.3734 159.827L38.0521 175.711L53.936 227.032ZM63.9328 195.82L59.9618 182.989L66.3769 181.004C69.9409 179.901 73.6745 181.869 74.7776 185.433C75.8806 188.997 73.9119 192.731 70.3479 193.834L72.9615 193.025C76.5255 191.922 80.2591 193.891 81.3621 197.455C82.4652 201.019 80.4964 204.752 76.9325 205.855L67.9037 208.65L63.9328 195.82Z" stroke="black" stroke-width="3" stroke-miterlimit="10"/>
<path d="M142.496 177.102C143.819 181.379 141.44 185.89 137.164 187.214C132.887 188.537 128.375 186.159 127.052 181.882L123.89 171.665C122.566 167.388 124.945 162.877 129.222 161.553C133.498 160.229 138.01 162.608 139.334 166.885M99.5901 156.665L115.474 207.986L166.795 192.102L150.911 140.781L99.5901 156.665Z" stroke="black" stroke-width="3" stroke-miterlimit="10"/>
<path d="M82.0203 108.729L76.7931 110.347L77.4744 129.793L92.4431 125.16L82.0203 108.729Z" stroke="black" stroke-width="3" stroke-miterlimit="10"/>
<path d="M77.5932 129.757L77.9041 140.856L77.4744 129.793L92.4431 125.161M77.5932 129.757L77.3556 129.83M77.5932 129.757L76.912 110.31L82.0203 108.729L92.4431 125.161M92.4431 125.161L92.6807 125.087M92.4431 125.161L98.4564 134.495M101.096 88.766L49.7751 104.65L65.6591 155.971L116.98 140.087L101.096 88.766Z" stroke="black" stroke-width="3" stroke-miterlimit="10"/>
</g>
<g clip-path="url(#clip1_5_793)">
<path d="M134.262 85.9209C135.097 83.546 135.931 81.171 136.803 78.866C142.104 65.1761 147.405 51.4861 152.743 37.866C153.088 37.0366 153.47 36.2772 153.852 35.5177C154.986 35.6943 156.083 35.8009 157.218 35.9775C157.959 36.149 158.782 36.229 159.523 36.4005C159.178 37.2299 158.869 38.1292 158.524 38.9586C157.571 41.3552 156.581 43.6819 155.628 46.0784C154.983 47.5757 154.493 49.1212 153.967 50.5968C152.706 53.8927 151.444 57.1886 150.145 60.4146C148.711 64.1252 147.277 67.8359 145.843 71.5465C144.935 73.7815 144.064 76.0865 143.274 78.2999C142.629 79.7971 142.14 81.3426 141.495 82.8399C141.187 83.7392 140.878 84.6386 140.607 85.6079C139.702 85.6195 138.714 85.7227 137.809 85.7344C136.63 85.7194 135.552 86.1457 134.262 85.9209Z" fill="#45AAB8"/>
<path d="M171.267 37.9395C168.444 45.1992 165.657 52.5289 162.752 59.8802C159.358 68.777 155.963 77.6738 152.569 86.5706C152.56 86.8021 152.396 86.9853 152.232 87.1685C150.668 86.917 149.132 86.967 147.633 87.0869C147.477 87.0386 147.477 87.0386 147.322 86.9903C146.928 86.9853 146.416 87.0019 146.023 86.9969C146.187 86.8137 146.269 86.7221 146.433 86.5389C146.914 85.2249 147.395 83.9108 147.913 82.6667C148.829 80.2002 149.902 77.782 150.818 75.3155C151.78 72.6874 152.778 70.1293 153.74 67.5012C154.394 65.7724 155.166 64.0221 155.819 62.2933C157.073 59.2289 158.17 56.1162 159.304 53.0734C160.385 50.4237 161.429 47.704 162.51 45.0543C163.372 42.9808 164.116 40.9289 164.823 38.8072C165.078 38.3009 165.177 37.7463 165.276 37.1917C166.218 37.25 167.197 37.3782 168.139 37.4365C169.117 37.5648 170.251 37.7413 171.267 37.9395Z" fill="#047B8E"/>
<path d="M174.472 29.9204C174.427 30.082 174.427 30.082 174.345 30.1736C173.691 31.9023 172.882 33.5828 172.229 35.3115C171.25 35.1832 170.116 35.0067 169.137 34.8784C168.159 34.7502 167.299 34.6003 166.283 34.4021C166.365 34.3105 166.603 34.2672 166.566 34.1972C167.302 32.3769 167.918 30.5782 168.535 28.7795C170.062 28.9611 171.434 29.0943 172.962 29.2759C173.547 29.3991 173.969 29.7056 174.472 29.9204Z" fill="#055868"/>
<path d="M154.85 32.9597C154.896 32.7982 154.822 32.6583 154.986 32.4751C155.64 30.7463 156.375 28.926 157.028 27.1973C157.577 27.2506 158.126 27.3039 158.519 27.3089C158.83 27.4055 159.023 27.5237 159.297 27.5504C160.431 27.7269 161.529 27.8335 162.663 28.0101C162.264 29.2325 161.828 30.385 161.429 31.6074C161.166 32.3452 161.104 32.9698 160.841 33.7076C159.862 33.5793 158.921 33.521 157.942 33.3928C156.808 33.2162 155.829 33.088 154.85 32.9597Z" fill="#388691"/>
<path d="M147.633 87.0869C149.132 86.967 150.705 86.987 152.232 87.1686C152.068 87.3518 151.941 87.6049 151.777 87.7881C149.152 90.7193 146.49 93.5805 143.709 96.4634C142.643 97.6542 141.302 98.8183 140.236 100.009C140.08 99.9608 140.043 99.8908 139.888 99.8425C140.216 99.4761 140.47 98.9698 140.717 98.6951C142.021 97.461 142.547 95.9854 143.421 94.6763C144.377 93.2757 145.214 91.8967 146.051 90.5177C146.798 89.4618 147.508 88.336 148.136 87.3018C147.944 87.1835 147.788 87.1352 147.633 87.0869Z" fill="#E9C293"/>
<path d="M134.262 85.9208C135.552 86.1457 136.63 85.7193 137.891 85.6427C137.784 86.4288 137.713 87.2849 137.606 88.0709C137.399 89.4116 137.274 90.6607 137.068 92.0014C136.861 93.3421 136.81 94.7311 136.759 96.1201C136.717 97.2776 136.675 98.4351 136.669 99.6625C136.431 99.7058 136.276 99.6575 136.038 99.7008C135.834 98.8181 135.631 97.9354 135.546 97.0311C135.088 93.4354 134.785 89.8879 134.327 86.2922C134.409 86.2006 134.336 86.0607 134.262 85.9208Z" fill="#FCE2C0"/>
<path d="M136.038 99.7008C136.276 99.6575 136.431 99.7058 136.669 99.6625C136.824 99.7108 136.98 99.7591 137.136 99.8074C137.648 99.7908 138.278 99.7525 138.827 99.8058C139.22 99.8108 139.495 99.8374 139.888 99.8424C140.043 99.8907 140.08 99.9607 140.236 100.009C140.19 100.171 140.145 100.332 140.063 100.424C139.325 101.248 138.55 102.003 137.811 102.827C137.647 103.01 137.172 103.097 136.816 103.162C136.697 103.183 136.312 102.947 136.239 102.807C136.236 101.811 136.196 100.745 136.038 99.7008Z" fill="#454444"/>
<path d="M169.137 34.8784C170.116 35.0066 171.25 35.1832 172.229 35.3114C171.92 36.2108 171.575 37.0402 171.267 37.9395C170.252 37.7413 169.154 37.6347 168.139 37.4365C168.447 36.5372 168.792 35.7078 169.137 34.8784Z" fill="#BBBDBE"/>
<path d="M154.85 32.9597C155.829 33.0879 156.963 33.2645 157.942 33.3927C157.752 34.2704 157.407 35.0998 157.218 35.9775C156.083 35.801 154.986 35.6944 153.852 35.5178C154.16 34.6185 154.505 33.7891 154.85 32.9597Z" fill="#E4E6E6"/>
<path d="M162.507 27.9617C161.373 27.7852 160.276 27.6786 159.141 27.502C158.867 27.4753 158.675 27.3571 158.364 27.2605C158.994 27.2222 159.625 27.1839 160.293 27.2156C165.084 27.4155 169.539 28.2133 173.821 29.4258C174.251 29.5007 174.718 29.6456 174.234 29.9637C173.731 29.7489 173.346 29.5124 172.879 29.3675C171.471 29.1643 169.98 29.0527 168.453 28.8711C166.578 28.523 164.62 28.2665 162.507 27.9617Z" fill="#104D58"/>
<path d="M174.345 30.1735C174.308 30.1036 174.427 30.082 174.39 30.012C174.39 30.012 174.308 30.1036 174.345 30.1735Z" fill="#104D58"/>
<path d="M165.239 37.1216C165.14 37.6762 165.005 38.1609 164.787 38.7371C164.043 40.789 163.217 42.9324 162.473 44.9842C161.392 47.634 160.348 50.3536 159.268 53.0034C158.015 56.0678 156.917 59.1805 155.783 62.2233C155.129 63.952 154.357 65.7024 153.704 67.4311C152.742 70.0592 151.78 72.6873 150.781 75.2454C149.865 77.712 148.829 80.2001 147.876 82.5967C147.395 83.9108 146.914 85.2248 146.397 86.4689C146.351 86.6304 146.187 86.8136 145.987 86.9269C145.831 86.8786 145.593 86.9219 145.438 86.8736C144.521 86.1208 142.949 86.1008 141.622 85.806C141.585 85.736 141.585 85.736 141.467 85.7577C141.155 85.6611 140.844 85.5645 140.652 85.4462C140.96 84.5469 141.232 83.5776 141.54 82.6782C142.03 81.1327 142.675 79.6355 143.32 78.1382C144.228 75.9032 145.099 73.5982 145.888 71.3848C147.322 67.6742 148.757 63.9636 150.191 60.253C151.452 56.9571 152.714 53.6611 154.012 50.4352C154.657 48.9379 155.147 47.3924 155.673 45.9168C156.626 43.5202 157.616 41.1936 158.57 38.797C158.915 37.9676 159.223 37.0683 159.568 36.2389C160.547 36.3671 161.644 36.4737 162.623 36.602C163.52 36.8218 164.38 36.9717 165.239 37.1216Z" fill="#1A93A5"/>
<path d="M140.689 85.5163C141 85.6129 141.311 85.7095 141.503 85.8277C141.331 86.2424 141.24 86.5655 141.068 86.9802C140.915 87.9278 140.881 88.8538 140.573 89.7532C140.21 91.0456 139.812 92.268 139.413 93.4904C139.277 93.9751 139.141 94.4597 139.005 94.9444C138.833 95.3591 138.66 95.7738 138.488 96.1885C138.434 96.5815 138.536 97.0229 138.363 97.4376C138.018 98.267 137.517 99.0481 137.172 99.8774C137.017 99.8291 136.861 99.7808 136.706 99.7325C136.748 98.575 136.754 97.3476 136.796 96.1901C136.847 94.8011 137.054 93.4604 137.105 92.0714C137.192 90.7524 137.436 89.4817 137.642 88.141C137.75 87.3549 137.821 86.4988 137.928 85.7127C138.796 85.6311 139.702 85.6195 140.689 85.5163Z" fill="#FDD5A5"/>
<path d="M162.541 36.6937C161.562 36.5655 160.465 36.4589 159.486 36.3306C158.745 36.1591 157.922 36.0791 157.181 35.9076C157.37 35.0299 157.716 34.2005 157.905 33.3228C158.884 33.4511 159.826 33.5094 160.804 33.6376C161.664 33.7875 162.643 33.9158 163.503 34.0657C163.194 34.965 162.849 35.7944 162.541 36.6937Z" fill="#DBDDDE"/>
<path d="M145.475 86.9436C145.63 86.9919 145.868 86.9486 146.023 86.9969C146.416 87.0019 146.928 86.9853 147.322 86.9903C147.477 87.0386 147.477 87.0386 147.633 87.0869C147.788 87.1352 148.099 87.2318 148.292 87.35C147.545 88.4059 146.798 89.4618 146.207 90.566C145.37 91.945 144.569 93.3939 143.576 94.7246C142.583 96.0553 142.176 97.5092 140.872 98.7433C140.507 99.0398 140.371 99.5244 140.043 99.8908C139.65 99.8858 139.376 99.8592 138.983 99.8542C139.746 98.3353 140.547 96.8863 141.311 95.3674C141.947 94.1017 142.547 92.766 143.028 91.452C143.746 90.0946 144.309 88.689 145.028 87.3317C145.073 87.1701 145.274 87.0569 145.475 86.9436Z" fill="#F1C793"/>
<path d="M162.541 36.6936C162.886 35.8642 163.194 34.9648 163.54 34.1355C164.481 34.1938 165.341 34.3437 166.283 34.402C167.262 34.5302 168.122 34.6801 169.137 34.8783C168.792 35.7077 168.484 36.6071 168.139 37.4365C167.197 37.3781 166.218 37.2499 165.276 37.1916C164.379 36.9717 163.52 36.8218 162.541 36.6936Z" fill="#CFD1D2"/>
<path d="M147.633 87.0868C147.477 87.0385 147.477 87.0385 147.322 86.9902C147.358 87.0602 147.477 87.0385 147.633 87.0868Z" fill="#E9C293"/>
<path d="M166.283 34.4021C165.341 34.3438 164.481 34.1939 163.54 34.1356C162.68 33.9857 161.701 33.8574 160.841 33.7075C160.985 32.9914 161.13 32.2752 161.43 31.6074C161.828 30.3849 162.264 29.2324 162.663 28.01C164.657 28.3365 166.733 28.5713 168.727 28.8978C168.111 30.6965 167.375 32.5168 166.758 34.3155C166.64 34.3371 166.402 34.3804 166.283 34.4021Z" fill="#14707F"/>
<path d="M145.475 86.9436C145.274 87.0569 145.073 87.1701 144.991 87.2617C144.272 88.6191 143.554 89.9764 142.991 91.382C142.354 92.6478 141.874 93.9618 141.274 95.2975C140.51 96.8164 139.71 98.2653 138.946 99.7842C138.434 99.8009 137.803 99.8392 137.254 99.7859C137.599 98.9565 138.1 98.1754 138.445 97.346C138.618 96.9313 138.516 96.4899 138.57 96.0969C138.624 95.7038 138.915 95.2675 139.087 94.8528C139.223 94.3682 139.359 93.8835 139.495 93.3989C139.894 92.1764 140.375 90.8624 140.655 89.6616C140.963 88.7623 140.997 87.8363 141.15 86.8886C141.203 86.4956 141.413 86.1508 141.585 85.7361L141.741 85.7844C143.022 86.2408 144.558 86.1908 145.475 86.9436Z" fill="#FCD19C"/>
<path d="M141.659 85.8767L141.503 85.8276C141.622 85.806 141.659 85.8767 141.659 85.8767Z" fill="#FDD5A5"/>
</g>
<defs>
<clipPath id="clip0_5_793">
<rect width="124.359" height="124.359" fill="white" transform="translate(15.1169 112.122) rotate(-17.1973)"/>
</clipPath>
<clipPath id="clip1_5_793">
<rect width="120.756" height="79.0245" fill="white" transform="matrix(0.983798 -0.179283 0.465278 0.885165 76.1292 39.717)"/>
</clipPath>
</defs>
</svg>
