<svg width="76" height="76" viewBox="0 0 76 76" fill="none" xmlns="http://www.w3.org/2000/svg">
<g filter="url(#filter0_i_206_283)">
<path d="M62.9026 73.9781C67.984 72.0148 72.0012 67.9976 73.9645 62.9162C74.8939 60.5091 75.5445 57.7628 75.721 53.7456C75.7629 52.8046 75.7954 52.0146 75.8256 51.2224V24.382C75.8047 23.8221 75.7814 23.2389 75.7512 22.5837C75.5747 18.5664 74.9241 15.8062 73.9947 13.4131C73.0351 10.8735 71.5574 8.5989 69.6243 6.70994C67.7331 4.78846 65.4445 3.29681 62.9328 2.3535C60.5258 1.42412 57.7795 0.773562 53.7622 0.59698C49.7148 0.404135 48.4299 0.359985 38.1673 0.359985C27.9047 0.359985 26.6175 0.404133 22.5863 0.580715C18.5691 0.757296 15.8089 1.40786 13.4157 2.33723C10.8762 3.29681 8.60158 4.77452 6.7103 6.70994C4.79114 8.60122 3.2995 10.8898 2.35386 13.3991C1.42448 15.8062 0.773921 18.5525 0.59734 22.5697C0.404494 26.6172 0.360352 27.902 0.360352 38.167C0.360352 48.4319 0.404493 49.7168 0.581074 53.7479C0.757655 57.7652 1.40822 60.5277 2.33992 62.9185C3.2995 65.458 4.79114 67.7327 6.7103 69.624C8.60158 71.5431 10.8902 73.0371 13.4018 73.9804C15.8089 74.9098 18.5552 75.5604 22.5724 75.7369C26.6036 75.9158 27.8884 75.96 38.1534 75.96C48.4183 75.96 49.7009 75.9158 53.7344 75.7369C57.7516 75.5604 60.5118 74.9098 62.905 73.9804L62.9026 73.9781ZM38.1813 69.1639C28.0929 69.1639 26.8824 69.1198 22.9093 68.9432C19.2174 68.7806 17.2239 68.1602 15.8949 67.6444C14.2568 67.038 12.7652 66.0784 11.5523 64.8238C10.2977 63.597 9.33579 62.1216 8.7317 60.4812C8.21589 59.1522 7.59553 57.1425 7.43289 53.4668C7.25631 49.4798 7.21217 48.2832 7.21217 38.1948C7.21217 28.1065 7.25631 26.896 7.43289 22.9252C7.59553 19.2333 8.21589 17.2398 8.7317 15.9108C9.33811 14.2704 10.2977 12.7788 11.5686 11.5683C12.7931 10.3136 14.2708 9.35401 15.9088 8.74759C17.2378 8.23179 19.2476 7.61143 22.9233 7.44879C26.9103 7.27221 28.1068 7.22807 38.1929 7.22807C48.2789 7.22807 49.4918 7.27221 53.4648 7.44879C57.1568 7.61143 59.1503 8.23179 60.4793 8.74759C62.1173 9.35401 63.609 10.3136 64.8195 11.5683C66.0741 12.795 67.036 14.2704 67.6401 15.9108C68.1559 17.2398 68.7763 19.2472 68.9389 22.9252C69.1155 26.9122 69.1597 28.1088 69.1597 38.1948C69.1597 48.2809 69.1155 49.4635 68.9389 53.4505C68.7763 57.1425 68.1559 59.136 67.6401 60.465C66.3692 63.7596 63.7553 66.3735 60.463 67.6421C59.134 68.1579 57.1266 68.7783 53.4486 68.9409C49.4616 69.1175 48.265 69.1616 38.1789 69.1616L38.1813 69.1639Z" fill="white"/>
<path d="M38.1677 18.7428C27.445 18.7428 18.7461 27.4417 18.7461 38.1644C18.7461 48.8871 27.445 57.586 38.1677 57.586C48.8904 57.586 57.587 48.8871 57.587 38.1644C57.587 27.4417 48.888 18.7428 38.1677 18.7428ZM38.1677 50.7598C31.2113 50.7598 25.57 45.1185 25.57 38.1621C25.57 31.2057 31.2113 25.5644 38.1677 25.5644C45.1241 25.5644 50.7654 31.2057 50.7654 38.1621C50.7654 45.1185 45.1241 50.7598 38.1677 50.7598Z" fill="white"/>
<path d="M62.8887 17.9763C62.8887 15.4716 60.858 13.4432 58.3533 13.4432C55.8487 13.4432 53.8203 15.4739 53.8203 17.9763C53.8203 20.4786 55.851 22.5093 58.3533 22.5093C60.8557 22.5093 62.8887 20.4809 62.8887 17.9763Z" fill="white"/>
</g>
<defs>
<filter id="filter0_i_206_283" x="0.360352" y="0.359985" width="75.4648" height="76.1" filterUnits="userSpaceOnUse" color-interpolation-filters="sRGB">
<feFlood flood-opacity="0" result="BackgroundImageFix"/>
<feBlend mode="normal" in="SourceGraphic" in2="BackgroundImageFix" result="shape"/>
<feColorMatrix in="SourceAlpha" type="matrix" values="0 0 0 0 0 0 0 0 0 0 0 0 0 0 0 0 0 0 127 0" result="hardAlpha"/>
<feOffset dy="0.5"/>
<feGaussianBlur stdDeviation="1.25"/>
<feComposite in2="hardAlpha" operator="arithmetic" k2="-1" k3="1"/>
<feColorMatrix type="matrix" values="0 0 0 0 0 0 0 0 0 0 0 0 0 0 0 0 0 0 0.1 0"/>
<feBlend mode="normal" in2="shape" result="effect1_innerShadow_206_283"/>
</filter>
</defs>
</svg>
