<svg width="173" height="173" viewBox="0 0 173 173" fill="none" xmlns="http://www.w3.org/2000/svg">
<g clip-path="url(#clip0_5_774)">
<path d="M117.931 59.5151C110.523 54.8011 101.639 52.556 92.9399 52.9431C71.02 53.8547 51.8693 70.4373 50.4434 94.2579C49.972 102.961 51.9637 111.996 56.4099 119.644C60.9125 127.121 67.754 132.982 75.6725 136.721C83.5331 140.345 92.4708 141.846 101.108 140.486C109.745 139.125 117.853 135.02 124.177 129.092C130.501 123.165 135.27 115.298 137.289 106.816C139.419 97.9896 138.457 88.7209 134.923 80.3238C131.617 71.811 125.627 64.5139 117.931 59.5151Z" fill="#FF986D"/>
<path d="M143.536 62.7637C141.408 60.8281 138.492 61.5869 136.151 62.6291C133.124 64.0181 130.326 65.5778 127.531 67.4236C127.417 67.4815 127.302 67.5393 127.302 67.5393C127.36 67.6535 127.476 67.8819 127.534 67.9961C127.592 68.1103 127.764 68.1666 127.821 68.2808C127.879 68.395 128.109 68.5656 128.167 68.6798C129.137 68.0452 130.165 67.5249 131.135 66.8903C133.246 65.6776 135.645 64.4634 137.988 63.7075C138.845 63.4169 139.988 63.125 140.848 63.4069C141.709 63.6888 142.284 64.2583 142.689 65.0577C143.614 66.8849 143.223 68.9476 142.201 70.6128C141.067 72.6221 139.53 74.4044 137.993 76.1866C136.4 78.1409 134.749 79.981 133.099 81.8212C129.797 85.5014 126.38 88.9532 122.79 92.3486C115.612 99.1395 107.8 105.247 99.6991 110.783C91.4263 116.263 82.6923 121.115 73.7257 125.224C69.1563 127.251 64.6434 129.105 59.9006 130.789C57.8436 131.544 55.9008 132.24 53.6703 132.652C52.1265 133.004 50.1808 133.128 48.6891 132.448C48.1152 132.165 47.6555 131.824 47.4243 131.367C46.9588 129.881 46.9516 128.45 47.5733 126.844C48.0792 125.01 48.9871 123.402 49.8371 121.681C50.291 120.877 50.6871 119.959 51.1974 118.983C51.5935 118.066 52.2194 117.318 52.7875 116.457C53.2992 115.767 53.6968 115.136 54.2085 114.446C54.035 114.103 53.8038 113.647 53.6303 113.304C53.4019 113.42 53.2314 113.65 53.003 113.765C51.8624 114.63 50.9517 115.665 49.9268 116.757C48.9019 117.85 47.877 118.943 47.1398 120.32C46.3447 121.584 45.7795 123.018 45.1564 124.338C44.0245 126.919 43.1253 130.244 45.4265 132.522C46.0596 133.206 47.0368 134.002 48.0689 134.341C49.101 134.679 50.1894 134.845 51.2765 134.725C53.6804 134.656 56.0236 133.9 58.2526 133.202C61.1668 132.157 64.081 131.112 66.9952 130.067C72.5937 127.806 78.1909 125.259 83.5582 122.542C94.4633 116.877 104.734 110.242 114.312 102.523C123.776 94.8624 132.491 86.2892 140.287 77.0338C142.051 74.8496 144.215 72.6062 145.175 69.9682C145.792 67.5036 145.434 64.5287 143.536 62.7637Z" fill="black"/>
<path d="M85.8334 62.7103C85.7178 62.4819 85.488 62.3113 85.2581 62.1408C85.0861 62.0844 84.9141 62.028 84.6843 61.8574C84.3402 61.7447 83.882 61.6897 83.5394 61.8632C83.311 61.9788 83.1968 62.0366 82.9106 62.0381C82.568 62.2115 82.2832 62.4992 81.9985 62.7868C81.8843 62.8446 81.8279 63.0167 81.7137 63.0745C81.5431 63.3043 81.4304 63.6483 81.374 63.8204C81.2612 64.1644 81.2627 64.4506 81.3783 64.679C81.3797 64.9652 81.5532 65.3078 81.783 65.4784C81.8987 65.7068 82.1285 65.8774 82.3583 66.0479C82.5303 66.1043 82.7023 66.1607 82.9322 66.3313C83.2762 66.444 83.7344 66.499 84.077 66.3255C84.3054 66.2099 84.4196 66.1521 84.7058 66.1506C85.0484 65.9772 85.3332 65.6895 85.618 65.4019C85.7322 65.344 85.7886 65.172 85.9028 65.1142C86.0733 64.8844 86.1861 64.5403 86.2425 64.3683C86.3552 64.0243 86.3538 63.7381 86.2382 63.5097C86.0647 63.1671 85.9491 62.9387 85.8334 62.7103Z" fill="#E6EAEC"/>
<path d="M81.985 82.8795C79.4726 84.1515 81.4962 88.1484 84.0086 86.8764C86.6351 85.5466 84.6115 81.5497 81.985 82.8795Z" fill="#E6EAEC"/>
<path d="M102.175 68.0662C100.005 69.1648 101.682 72.4765 103.852 71.378C106.079 70.3936 104.345 66.9677 102.175 68.0662Z" fill="#E6EAEC"/>
<path d="M110.499 84.2245C110.096 83.7114 109.464 83.3138 108.834 83.2025C108.146 82.977 107.574 82.9799 106.887 83.0406C106.258 83.2155 105.573 83.5624 105.06 83.9656L104.946 84.0235C104.432 84.4267 104.035 85.0584 103.809 85.7465C103.584 86.4346 103.473 87.0648 103.705 87.8078C103.938 88.5508 104.227 89.1218 104.688 89.7492C105.091 90.2623 105.723 90.6599 106.411 90.8854C107.099 91.1109 107.729 91.2222 108.472 90.9895C109.215 90.7568 109.786 90.4677 110.414 90.0066C110.927 89.6033 111.325 88.9716 111.55 88.2836C111.776 87.5955 111.887 86.9653 111.654 86.2223L111.596 86.1081C111.249 85.4229 110.903 84.7377 110.499 84.2245Z" fill="#E6EAEC"/>
<path d="M92.093 100.861C91.8054 100.576 91.4035 100.349 91.0595 100.236C90.8875 100.18 90.6013 100.181 90.4293 100.125C89.971 100.07 89.5706 100.129 89.1138 100.36C88.7712 100.534 88.5428 100.65 88.4301 100.994C88.2595 101.223 88.0889 101.453 87.9762 101.797C87.8634 102.141 87.8649 102.428 87.8663 102.714C87.8677 103 87.927 103.4 88.0426 103.629C88.1583 103.857 88.2161 103.971 88.4459 104.142C88.7336 104.427 89.1354 104.654 89.4794 104.766C89.6515 104.823 89.9377 104.821 90.1097 104.878C90.5679 104.933 90.9683 104.873 91.4251 104.642C91.7677 104.469 91.9961 104.353 92.1089 104.009C92.2794 103.779 92.45 103.549 92.5628 103.205C92.6755 102.861 92.6741 102.575 92.6727 102.289C92.6712 102.003 92.5556 101.774 92.3821 101.432C92.3243 101.317 92.2087 101.089 92.093 100.861Z" fill="#E6EAEC"/>
<path d="M125.509 98.0021C119.685 100.951 124.253 109.972 130.077 107.024C135.901 104.075 131.333 95.0534 125.509 98.0021Z" fill="#E6EAEC"/>
<path d="M112.188 112.781C111.901 112.496 111.671 112.325 111.327 112.213C111.155 112.156 110.983 112.1 110.811 112.044C110.41 112.103 110.124 112.104 109.782 112.278C109.553 112.393 109.325 112.509 109.154 112.739C108.984 112.969 108.813 113.199 108.757 113.371C108.586 113.6 108.588 113.887 108.703 114.115C108.705 114.401 108.706 114.687 108.936 114.858C108.994 114.972 109.109 115.201 109.281 115.257C109.569 115.542 109.799 115.712 110.143 115.825C110.315 115.881 110.487 115.938 110.659 115.994C111.059 115.935 111.346 115.933 111.688 115.76C111.917 115.644 112.145 115.529 112.316 115.299C112.486 115.069 112.657 114.839 112.713 114.667C112.884 114.437 112.882 114.151 112.767 113.923C112.765 113.637 112.764 113.35 112.534 113.18C112.418 112.951 112.36 112.837 112.188 112.781Z" fill="#E6EAEC"/>
<path d="M123.852 75.7426C123.506 75.3436 123.104 75.1167 122.588 74.9475C122.416 74.8912 122.13 74.8926 121.958 74.8362C121.5 74.7813 120.985 74.8983 120.529 75.1296C120.186 75.3031 119.901 75.5907 119.731 75.8206C119.446 76.1082 119.275 76.338 119.22 76.7963C119.108 77.1403 118.995 77.4843 119.054 77.8847C119.113 78.2852 119.115 78.5714 119.288 78.914C119.404 79.1424 119.634 79.3129 119.749 79.5413C120.095 79.9403 120.497 80.1673 121.013 80.3364C121.185 80.3928 121.471 80.3913 121.643 80.4477C122.101 80.5027 122.616 80.3856 123.073 80.1543C123.415 79.9809 123.7 79.6932 123.87 79.4634C124.155 79.1757 124.326 78.9459 124.381 78.4877C124.493 78.1436 124.606 77.7996 124.547 77.3992C124.488 76.9988 124.314 76.6562 124.141 76.3136C124.025 76.0852 123.967 75.971 123.852 75.7426Z" fill="#E6EAEC"/>
<path d="M70.2689 86.6591C68.556 87.5264 69.8858 90.1529 71.5987 89.2857C73.3117 88.4184 71.9819 85.7918 70.2689 86.6591Z" fill="#E6EAEC"/>
<path d="M91.384 73.6731C91.1541 73.5025 90.9243 73.3319 90.7523 73.2756C90.5803 73.2192 90.4661 73.277 90.4082 73.1628C90.122 73.1642 89.8358 73.1657 89.6074 73.2813C89.379 73.397 89.2648 73.4548 89.0943 73.6846C88.8659 73.8002 88.8095 73.9723 88.8109 74.2585C88.7545 74.4305 88.6982 74.6025 88.6996 74.8887C88.6432 75.0607 88.7589 75.2891 88.8745 75.5175C88.9323 75.6317 88.9901 75.7459 89.048 75.8601C89.2778 76.0307 89.5076 76.2013 89.6796 76.2577L90.0237 76.3704C90.3099 76.369 90.5961 76.3675 90.8245 76.2519C91.0529 76.1363 91.1671 76.0784 91.3377 75.8486C91.566 75.733 91.6224 75.561 91.621 75.2747C91.6774 75.1027 91.7337 74.9307 91.7323 74.6445C91.7887 74.4725 91.6731 74.2441 91.5574 74.0157C91.4996 73.9015 91.4418 73.7873 91.384 73.6731Z" fill="#E6EAEC"/>
<path d="M103.292 96.6255C101.236 97.6662 102.797 100.75 104.853 99.7088C106.966 98.7823 105.347 95.5847 103.292 96.6255Z" fill="#E6EAEC"/>
<path d="M96.9175 126.825C96.2844 126.141 95.4229 125.573 94.5628 125.291C94.1046 125.236 93.5885 125.067 93.1303 125.012C92.0997 124.96 91.1846 125.137 90.2711 125.599C89.5859 125.946 88.9585 126.407 88.561 127.039C88.1056 127.556 87.7081 128.188 87.4826 128.876C87.2571 129.564 87.2036 130.309 87.2642 130.995C87.2107 131.74 87.4435 132.483 87.7904 133.168C88.1358 133.567 88.3671 134.024 88.7126 134.422C89.3457 135.106 90.2072 135.674 91.0673 135.956C91.5255 136.011 92.0416 136.18 92.4998 136.235C93.5304 136.287 94.4455 136.111 95.359 135.648C96.0442 135.302 96.6716 134.84 97.0691 134.209C97.5245 133.691 97.922 133.06 98.1475 132.372C98.3731 131.683 98.4266 130.939 98.3659 130.252C98.4194 129.508 98.1867 128.765 97.8397 128.08C97.4943 127.681 97.1488 127.282 96.9175 126.825Z" fill="#E6EAEC"/>
<path d="M38.9167 101.528L34.4601 103.211L33.3382 107.796L30.4574 104.09L25.651 104.515L28.2068 100.495L26.468 96.21L31.0531 97.3319L34.7017 94.3368L34.9545 99.0868L38.9167 101.528Z" fill="black"/>
<path d="M100.062 34.9898L94.1532 32.3862L88.8466 35.7903L89.3874 29.4907L84.4438 25.394L90.7333 23.9313L93.0506 18.0235L96.2841 23.5599L102.64 23.9287L98.4855 28.7581L100.062 34.9898Z" fill="black"/>
<path d="M160.539 97.1964L156.709 98.4177L155.583 102.144L153.22 98.8932L149.271 99.0276L151.659 95.8099L150.323 92.0385L154.108 93.2788L157.359 90.9155L157.321 94.8083L160.539 97.1964Z" fill="black"/>
</g>
<defs>
<clipPath id="clip0_5_774">
<rect width="128" height="128" fill="white" transform="translate(0 57.8179) rotate(-26.853)"/>
</clipPath>
</defs>
</svg>
