<svg width="68" height="62" viewBox="0 0 68 62" fill="none" xmlns="http://www.w3.org/2000/svg">
<path d="M4.16896 26.8609C4.16896 26.8609 34.2437 13.5231 44.6742 8.82649C48.6727 6.94802 62.2323 0.936372 62.2323 0.936372C62.2323 0.936372 68.4907 -1.69349 67.9691 4.69359C67.7952 7.32371 66.4045 16.5286 65.0138 26.4852C62.9276 40.5747 60.6677 55.979 60.6677 55.979C60.6677 55.979 60.32 60.2999 57.3647 61.0512C54.4095 61.8026 49.5417 58.4214 48.6727 57.6697C47.9771 57.1063 35.6344 48.6525 31.1145 44.5196C29.8976 43.3925 28.5069 41.1384 31.2882 38.5082C37.5467 32.3089 45.0218 24.6067 49.5417 19.7224C51.6279 17.468 53.7139 12.208 45.0218 18.5951C32.6791 27.8003 20.5102 36.4418 20.5102 36.4418C20.5102 36.4418 17.7286 38.3203 12.5134 36.6295C7.29795 34.939 1.21346 32.6846 1.21346 32.6846C1.21346 32.6846 -2.95852 29.8667 4.16896 26.8609Z" fill="white"/>
</svg>
