<svg width="78" height="77" viewBox="0 0 78 77" fill="none" xmlns="http://www.w3.org/2000/svg">
<path d="M1.77678 21.1035C-3.17469 7.89676 5.36162 2.03939 11.5286 0.337277C12.5745 0.0485932 13.6567 0.515993 14.2775 1.39927L25.5012 17.3686C26.2303 18.4059 26.1511 19.7911 25.3986 20.8118C22.8317 24.2932 21.9052 27.2474 21.5727 29.5468C21.2975 31.45 21.9822 33.3408 23.1344 34.887C31.9585 46.7281 41.5044 55.6326 46.1908 55.8506C49.6254 56.0103 53.8188 53.3707 56.1057 51.7041C57.127 50.9598 58.5237 50.8721 59.5782 51.5693L76.0037 62.4284C76.9056 63.0246 77.3958 64.0928 77.1655 65.1432C74.1678 78.8141 61.207 77.3617 54.8627 74.793C25.0971 61.0801 8.57366 39.2324 1.77678 21.1035Z" fill="#FEFEFE"/>
</svg>
